<svg width="86" height="86" viewBox="0 0 86 86" fill="none" xmlns="http://www.w3.org/2000/svg">
<g clip-path="url(#clip0_80_212)">
<path d="M65.8438 0H20.1562C9.02426 0 0 9.02426 0 20.1562V65.8438C0 76.9757 9.02426 86 20.1562 86H65.8438C76.9757 86 86 76.9757 86 65.8438V20.1562C86 9.02426 76.9757 0 65.8438 0Z" fill="#F4F2ED"/>
<path d="M13.9871 68.2084H24.676V42.2495L9.40625 30.7974V63.6275C9.40625 66.1622 11.4602 68.2084 13.9871 68.2084Z" fill="#4285F4"/>
<path d="M61.3237 68.2085H72.0129C74.5476 68.2085 76.5938 66.1545 76.5938 63.6276V30.7971L61.3237 42.2496" fill="#34A853"/>
<path d="M61.3237 22.3986V42.2495L76.5938 30.7974V24.6887C76.5938 19.0238 70.127 15.7941 65.5995 19.1918" fill="#FBBC04"/>
<path d="M24.6763 42.2494V22.3989L43 36.1411L61.3237 22.3982V42.2491L43 55.9923" fill="#EA4335"/>
<path d="M9.40625 24.689V30.797L24.676 42.2494V22.3989L20.4005 19.192C15.8653 15.7944 9.40625 19.0241 9.40625 24.689Z" fill="#C5221F"/>
</g>
<defs>
<clipPath id="clip0_80_212">
<rect width="86" height="86" fill="white"/>
</clipPath>
</defs>
</svg>
