<svg width="77" height="77" viewBox="0 0 77 77" fill="none" xmlns="http://www.w3.org/2000/svg">
<g clip-path="url(#clip0_80_244)">
<path d="M58.9531 0H18.0469C8.07986 0 0 8.07986 0 18.0469V58.9531C0 68.9201 8.07986 77 18.0469 77H58.9531C68.9201 77 77 68.9201 77 58.9531V18.0469C77 8.07986 68.9201 0 58.9531 0Z" fill="#0277BD"/>
<path d="M16.1679 30.8755L17.0287 40.4831H38.5289V30.8755H16.1679ZM38.5286 11.4297H14.4375L15.311 21.0372H38.5286V11.4297ZM38.5286 65.8233V55.8274L38.4865 55.8385L27.7865 52.9495L27.1025 45.2868H17.4579L18.8039 60.3722L38.4844 65.8356L38.5286 65.8233Z" fill="#EBEBEB"/>
<path d="M50.3261 40.4831L49.2108 52.9432L38.4955 55.8355V65.8308L58.1915 60.3722L58.3359 58.7489L60.5936 33.4556L60.8279 30.8755L62.5625 11.4297H38.4955V21.0372H52.0333L51.1593 30.8755H38.4955V40.4831H50.3261Z" fill="white"/>
</g>
<defs>
<clipPath id="clip0_80_244">
<rect width="77" height="77" fill="white"/>
</clipPath>
</defs>
</svg>
