<svg width="77" height="77" viewBox="0 0 77 77" fill="none" xmlns="http://www.w3.org/2000/svg">
<path d="M4.8125 4.8125H72.1875V72.1875H4.8125V4.8125Z" fill="#F5DE19"/>
<path d="M50.0717 57.4492C50.6466 58.6146 51.5387 59.594 52.6454 60.2751C53.7521 60.9561 55.0285 61.3111 56.3279 61.2992C58.9507 61.2992 60.6279 59.9878 60.6279 58.1711C60.6279 56.0055 58.905 55.2307 56.0175 53.9674L54.4342 53.2888C49.8623 51.3422 46.8305 48.9046 46.8305 43.7504C46.8305 39.0029 50.4398 35.3863 56.1017 35.3863C57.9345 35.2543 59.7657 35.6646 61.3668 36.5662C62.968 37.4678 64.2684 38.8207 65.1059 40.4563L60.1563 43.6205C59.8336 42.8096 59.2722 42.1159 58.5464 41.6312C57.8207 41.1465 56.9648 40.8937 56.0921 40.9063C55.7113 40.8681 55.3268 40.9098 54.963 41.0285C54.5992 41.1472 54.2642 41.3403 53.9792 41.5957C53.6942 41.851 53.4655 42.163 53.3077 42.5116C53.1499 42.8602 53.0664 43.2379 53.0626 43.6205C53.0626 45.519 54.2393 46.289 56.956 47.4705L58.5393 48.1491C63.9196 50.4567 66.9611 52.8076 66.9611 58.0941C66.9611 63.7945 62.4831 66.9178 56.4699 66.9178C54.1272 67.0656 51.7917 66.533 49.7446 65.3842C47.6976 64.2353 46.0263 62.5193 44.9319 60.4426L50.0717 57.4492ZM27.7056 57.9979C28.6994 59.7616 29.6041 61.2535 31.7794 61.2535C33.8584 61.2535 35.1722 60.4402 35.1722 57.276V35.7473H41.503V57.3602C41.503 63.9148 37.653 66.8986 32.0489 66.8986C30.0679 67.0069 28.1006 66.5132 26.4054 65.4824C24.7103 64.4517 23.3668 62.9322 22.5514 61.1236L27.7056 57.9979Z" fill="black"/>
</svg>
