<svg width="58" height="68" viewBox="0 0 58 68" fill="none" xmlns="http://www.w3.org/2000/svg">
<g filter="url(#filter0_d_58_90)">
<path d="M14.6185 12.7582L14.5883 47.2582C14.5891 47.6075 14.6852 47.95 14.8661 48.2487C15.0471 48.5475 15.3061 48.7913 15.6153 48.9538C15.9244 49.1163 16.2721 49.1914 16.6208 49.1711C16.9695 49.1507 17.3061 49.0356 17.5942 48.8382L42.5259 31.61C43.5596 30.896 43.5611 29.1748 42.5287 28.4571L17.6271 11.1853C17.3399 10.9854 17.0033 10.868 16.6541 10.8459C16.3049 10.8238 15.9562 10.8979 15.6461 11.06C15.336 11.2221 15.0762 11.4661 14.895 11.7655C14.7139 12.0649 14.6182 12.4083 14.6185 12.7582Z" fill="#4CAF50"/>
</g>
<defs>
<filter id="filter0_d_58_90" x="-9" y="-3.00012" width="74.0401" height="74.0402" filterUnits="userSpaceOnUse" color-interpolation-filters="sRGB">
<feFlood flood-opacity="0" result="BackgroundImageFix"/>
<feColorMatrix in="SourceAlpha" type="matrix" values="0 0 0 0 0 0 0 0 0 0 0 0 0 0 0 0 0 0 127 0" result="hardAlpha"/>
<feOffset dy="4"/>
<feGaussianBlur stdDeviation="7"/>
<feComposite in2="hardAlpha" operator="out"/>
<feColorMatrix type="matrix" values="0 0 0 0 0 0 0 0 0 0 0 0 0 0 0 0 0 0 0.25 0"/>
<feBlend mode="normal" in2="BackgroundImageFix" result="effect1_dropShadow_58_90"/>
<feBlend mode="normal" in="SourceGraphic" in2="effect1_dropShadow_58_90" result="shape"/>
</filter>
</defs>
</svg>
