<svg width="86" height="86" viewBox="0 0 86 86" fill="none" xmlns="http://www.w3.org/2000/svg">
<path d="M74.7461 1.45117H11.2539C5.84009 1.45117 1.45129 5.83997 1.45129 11.2538V74.7393C1.45129 80.1532 5.84009 84.542 11.2539 84.542H74.7461C80.16 84.542 84.5488 80.1532 84.5488 74.7393V11.2538C84.5488 5.83997 80.16 1.45117 74.7461 1.45117Z" fill="url(#paint0_linear_80_209)"/>
<path d="M35.3607 40.5006C35.3607 40.5006 42.4154 39.9765 42.4154 31.7057C42.4154 23.4349 36.644 19.397 29.334 19.397H5.28088V65.622H29.334C29.334 65.622 44.0145 66.0856 44.0145 51.9762C44.0145 51.9762 44.6595 40.5006 35.3607 40.5006ZM15.8764 27.614H29.3139C29.3139 27.614 32.5859 27.614 32.5859 32.4246C32.5859 37.2353 30.6643 37.934 28.4807 37.934H15.8831L15.8764 27.614ZM28.7092 57.4049H15.8831V45.0559H29.3206C29.3206 45.0559 34.1917 44.9887 34.1917 51.4051C34.2051 56.7465 30.6442 57.3512 28.7159 57.4049H28.7092ZM63.5996 31.1615C45.8218 31.1615 45.842 48.9192 45.842 48.9192C45.842 48.9192 44.6192 66.5895 63.5996 66.5895C63.5996 66.5895 79.4156 67.4898 79.4156 54.3009H71.2859C71.2859 54.3009 71.5546 59.2728 63.8953 59.2728C63.8953 59.2728 55.7588 59.817 55.7588 51.2103H79.7112C79.7112 51.2103 82.3113 31.1615 63.5996 31.1615ZM70.829 45.0559H55.6446C55.6446 45.0559 56.639 37.934 63.781 37.934C70.9231 37.934 70.829 45.0559 70.829 45.0559ZM53.6559 22.1248H72.7237V27.8156H53.6559V22.1248Z" fill="white"/>
<defs>
<linearGradient id="paint0_linear_80_209" x1="43" y1="1.45117" x2="43" y2="84.5487" gradientUnits="userSpaceOnUse">
<stop stop-color="#005CFF"/>
<stop offset="1" stop-color="#0047AD"/>
</linearGradient>
</defs>
</svg>
