<svg width="77" height="77" viewBox="0 0 77 77" fill="none" xmlns="http://www.w3.org/2000/svg">
<path d="M52.3618 0C48.4577 0 43.3474 2.78283 38.1806 7.60916C33.0132 2.8111 27.9035 0.0565469 24 0.0565469V0.0703828C22.8077 0.0703828 21.7285 0.326648 20.7912 0.86625C16.8029 3.16542 15.9089 10.3342 17.9669 19.3336C9.13776 22.0587 3.38862 26.417 3.38862 31.016C3.38862 35.6299 9.16603 40.0009 18.0234 42.7115C15.9793 51.7398 16.8883 58.9218 20.8917 61.2216C21.8139 61.7606 22.8925 62.0169 24.0848 62.0169C27.9889 62.0169 33.0992 59.2341 38.266 54.4083C43.4334 59.2058 48.5431 61.9609 52.4466 61.9609C53.6377 61.9609 54.7169 61.7053 55.6542 61.1657C59.6425 58.8659 60.5371 51.6971 58.4785 42.6977C67.2794 39.9871 73.0285 35.6155 73.0285 31.0154C73.0285 26.4032 67.2517 22.031 58.3937 19.3198C60.4378 10.2921 59.5288 3.11008 55.526 0.810305C54.6075 0.272508 53.5331 0.0174453 52.3618 0.0156406V0ZM52.3468 3.16663V3.17926C52.9995 3.17926 53.5259 3.30739 53.965 3.54862C55.896 4.65549 56.7334 8.87245 56.0807 14.2943C55.9243 15.6286 55.6692 17.0338 55.3564 18.4674C52.5742 17.7864 49.5363 17.2612 46.3426 16.9201C44.4266 14.2943 42.4385 11.9091 40.4377 9.82171C45.0577 5.52956 49.3943 3.17505 52.3468 3.16663ZM24 3.22197C26.9386 3.22197 31.2957 5.56385 35.9229 9.83675C33.8091 12.061 31.8505 14.4277 30.0607 16.9201C26.8526 17.2612 23.8165 17.7864 21.0337 18.4818C20.7201 17.1223 20.4734 15.7483 20.2943 14.3647C19.6278 8.94223 20.4507 4.72768 22.3673 3.60577C22.7926 3.3507 23.3479 3.23701 24 3.23701V3.22197ZM38.1668 12.0649C39.5594 13.5104 40.8766 15.0267 42.113 16.6079C40.8125 16.5461 39.5108 16.5132 38.2089 16.5093C36.874 16.5093 35.5548 16.537 34.2632 16.6079C35.4813 15.0245 36.7841 13.5081 38.1662 12.0655L38.1668 12.0649ZM38.2089 19.6885C40.3522 19.6885 42.4962 19.7884 44.5969 19.9586C45.8149 21.7091 46.9608 23.5087 48.0318 25.3529C49.0968 27.1924 50.0821 29.0771 50.9849 31.0015C50.0816 32.9278 49.1012 34.8171 48.0462 36.6646C46.9393 38.5806 45.8024 40.3985 44.6251 42.0877C42.5094 42.2724 40.3661 42.3705 38.2089 42.3705C36.0649 42.3705 33.9221 42.2724 31.8215 42.1022C30.6034 40.3519 29.4575 38.5525 28.3866 36.7085C27.3215 34.8684 26.3362 32.9831 25.4335 31.0581C26.3311 29.129 27.3116 27.2395 28.3721 25.395C29.479 23.479 30.6141 21.6617 31.7926 19.9725C33.9262 19.785 36.067 19.6903 38.2089 19.6885ZM27.6611 20.4261C26.9657 21.5191 26.2715 22.6398 25.6182 23.79C24.9758 24.9108 24.3604 26.0469 23.7726 27.1972C23.0274 25.3476 22.3737 23.4625 21.8139 21.5486C23.6727 21.1082 25.6314 20.7244 27.6611 20.4261ZM48.7278 20.4261C50.743 20.7244 52.6873 21.0938 54.5473 21.5486C54.0215 23.3797 53.3682 25.2662 52.6307 27.1551C52.0436 26.0018 51.4233 24.8655 50.7707 23.7479C50.118 22.6121 49.4232 21.5053 48.7278 20.4261ZM57.6129 22.3859C58.9647 22.8055 60.296 23.2885 61.6024 23.8333C66.6273 25.9767 69.8775 28.7872 69.8775 31.016C69.8631 33.2447 66.6122 36.0691 61.5874 38.1986C60.3662 38.7232 59.0332 39.1924 57.6562 39.6321C56.8471 36.8505 55.7817 33.9534 54.4619 30.9877C55.7673 28.0352 56.8176 25.1543 57.6123 22.3853L57.6129 22.3859ZM18.7471 22.4004C19.5562 25.182 20.6216 28.0773 21.9414 31.0442C20.636 33.9967 19.5851 36.8788 18.7904 39.6466C17.4428 39.2287 16.1164 38.7453 14.8159 38.198C9.79105 36.0546 6.53961 33.2448 6.53961 31.0154C6.53961 28.7872 9.79105 25.9622 14.8159 23.8327C16.0371 23.3081 17.3701 22.8401 18.7471 22.4004ZM38.1944 24.5293C34.6121 24.5293 31.7078 27.4331 31.7078 31.016C31.7078 34.5989 34.6121 37.5026 38.1944 37.5026C41.7773 37.5026 44.6811 34.5989 44.6811 31.016C44.6811 27.4331 41.7773 24.5293 38.1944 24.5293ZM52.6307 34.8202C53.3759 36.6698 54.0296 38.555 54.5894 40.4689C52.6591 40.9388 50.7079 41.3182 48.7422 41.6059C49.4511 40.5013 50.1323 39.3793 50.7851 38.2407C51.4277 37.1156 52.0431 35.9751 52.6307 34.8202ZM23.7726 34.8768C24.3595 36.0302 24.9796 37.1664 25.632 38.284C26.2908 39.4049 26.9728 40.512 27.6773 41.6047C25.6621 41.3069 23.7154 40.9369 21.856 40.4827C22.3812 38.6516 23.0351 36.7651 23.7726 34.8768ZM55.3847 43.5351C55.7113 44.9692 55.9664 46.3462 56.1228 47.6666C56.7893 53.0885 55.9664 57.3036 54.0504 58.425C53.6245 58.6806 53.0717 58.7955 52.4184 58.7955C49.4797 58.7955 45.1214 56.453 40.4936 52.1801C42.6085 49.9565 44.5676 47.5898 46.357 45.0967C49.5646 44.7563 52.6031 44.2305 55.3847 43.5351ZM21.0619 43.5634C23.8442 44.2449 26.8808 44.7701 30.0745 45.1106C31.9905 47.737 33.9787 50.1216 35.9801 52.209C31.3523 56.5102 27.009 58.8659 24.0571 58.8659C23.4183 58.8515 22.8786 58.7239 22.4527 58.4827C20.5223 57.3758 19.6856 53.1595 20.3382 47.737C20.4947 46.4027 20.7491 44.9975 21.0619 43.5634ZM34.2915 45.4234C35.5692 45.4799 36.8746 45.522 38.1944 45.522C39.5287 45.522 40.8491 45.4944 42.1407 45.4234C40.9222 47.0067 39.6189 48.5228 38.2365 49.9652C36.9167 48.6026 35.5975 47.0837 34.2915 45.4234ZM59.7917 67.6319C59.5663 67.6323 59.3953 67.6972 59.2786 67.8268C59.1663 67.9567 59.11 68.1153 59.1096 68.3026C59.1096 68.4903 59.1657 68.6467 59.278 68.7718C59.3951 68.8966 59.5665 68.9591 59.7923 68.9595C60.131 68.9601 60.1888 68.8963 60.3055 68.7718C60.4228 68.6443 60.4855 68.4758 60.4799 68.3026C60.4799 68.1149 60.4218 67.9565 60.3055 67.8274C60.1884 67.697 60.0167 67.6319 59.7917 67.6319ZM3.20154 67.7582V76.8737H4.40948V73.1861H6.55104L8.53018 76.8737H9.81993V76.7985L7.67837 72.9298C8.22539 72.7209 8.65109 72.4055 8.95548 71.9836C9.26429 71.5625 9.41869 71.068 9.41869 70.5001C9.41909 69.6066 9.14157 68.9262 8.58612 68.459C8.03549 67.9914 7.24644 67.7576 6.21898 67.7576L3.20154 67.7582ZM38.9723 67.7582V76.8737H40.1814V69.8492L44.7707 76.8737H45.9799V67.7582H44.7827V74.8145L40.1814 67.7582H38.9723ZM31.8287 68.459V70.0995H30.5955V70.9946H31.8287V75.1959C31.8287 75.7722 31.9598 76.2168 32.2221 76.5296C32.486 76.8424 32.8766 76.999 33.394 76.9994C33.6827 76.9994 33.9791 76.9575 34.2831 76.8737V75.9352C34.0493 75.9854 33.8656 76.0104 33.732 76.0104C33.4609 76.0104 33.269 75.9435 33.1563 75.8095C33.0441 75.6716 32.9879 75.467 32.9879 75.1959V70.9946H34.2512V70.0995H32.9879V68.459H31.8287ZM55.3215 68.459V70.0995H54.0877V70.9946H55.3209V75.1959C55.3213 75.7722 55.4529 76.2168 55.7155 76.5296C55.9786 76.8424 56.3686 76.999 56.8856 76.9994C57.1743 76.9994 57.4709 76.9575 57.7753 76.8737V75.9352C57.5411 75.9854 57.3574 76.0104 57.2243 76.0104C56.9532 76.0104 56.7613 75.9435 56.6486 75.8095C56.5363 75.6716 56.4799 75.467 56.4795 75.1959V70.9946H57.7428V70.0995H56.4795V68.459H55.3215ZM4.40948 68.7478H6.25026C6.8847 68.7514 7.36896 68.9038 7.70303 69.205C8.04111 69.5045 8.21015 69.9362 8.21015 70.5001C8.21015 71.0175 8.03289 71.4305 7.67837 71.7393C7.32786 72.0485 6.85382 72.2033 6.25627 72.2037H4.40948V68.7478ZM13.5953 69.9737C13.0563 69.9737 12.5554 70.1241 12.0926 70.4249C11.6334 70.7213 11.2745 71.1348 11.0158 71.6653C10.7604 72.1911 10.6328 72.7899 10.6332 73.4616V73.6746C10.6332 74.6844 10.9214 75.4919 11.4977 76.0971C12.074 76.6986 12.8213 76.9994 13.7397 76.9994C14.8747 76.9994 15.7261 76.5631 16.2939 75.6904L15.5865 75.1394C15.3823 75.4061 15.1291 75.6315 14.8406 75.8035C14.5566 75.9703 14.2103 76.0537 13.8017 76.0537C13.2258 76.0537 12.7499 75.8492 12.3742 75.4401C12.0028 75.0271 11.8087 74.4867 11.7919 73.8189H16.3806V73.3359C16.381 72.2547 16.1371 71.4241 15.6491 70.8442C15.1606 70.2639 14.476 69.9737 13.5953 69.9737ZM20.3641 69.9737C19.8969 69.969 19.4339 70.0633 19.0058 70.2505C18.5963 70.4333 18.2705 70.6834 18.0282 71.0006C17.7904 71.3138 17.6713 71.6397 17.6709 71.9782H18.8361C18.8361 71.6814 18.9761 71.4287 19.256 71.2202C19.5356 71.0116 19.8817 70.9074 20.2943 70.9074C20.7668 70.9074 21.1241 71.0285 21.3663 71.2707C21.6081 71.5081 21.7291 71.8292 21.7291 72.2338V72.7662H20.6011C19.6286 72.7662 18.873 72.9625 18.3344 73.3551C17.8003 73.7437 17.5332 74.2908 17.5332 74.9962C17.5332 75.5761 17.7463 76.0559 18.1726 76.4357C18.6025 76.8115 19.1512 76.9994 19.8185 76.9994C20.566 76.9994 21.2091 76.7199 21.7477 76.1608C21.7898 76.5029 21.844 76.7405 21.9101 76.8737H23.1253V76.7738C22.9669 76.4069 22.8877 75.9122 22.8877 75.2898V72.1719C22.8708 71.4873 22.6408 70.9511 22.1977 70.5633C21.7557 70.1703 21.1445 69.9737 20.3641 69.9737ZM27.4132 69.9737C26.796 69.9737 26.2598 70.1161 25.8046 70.4009C25.3539 70.6836 25.0074 71.082 24.7651 71.5962C24.5229 72.1091 24.4018 72.6954 24.4018 73.3551V73.5488C24.4018 74.618 24.6733 75.4616 25.2163 76.0796C25.7633 76.6932 26.4981 77 27.4204 77C27.8796 77 28.3136 76.8953 28.7222 76.686C29.1166 76.4927 29.4567 76.2043 29.7118 75.8468C29.9584 75.4963 30.0924 75.1269 30.1136 74.7387H29.017C28.9837 75.1145 28.8127 75.4275 28.5039 75.6778C28.1987 75.9272 27.8151 76.0604 27.421 76.0537C26.8235 76.0537 26.3639 75.8432 26.0423 75.4221C25.7214 75.0002 25.561 74.3988 25.561 73.618V73.3997C25.561 72.598 25.7214 71.9864 26.0423 71.5649C26.3679 71.139 26.8251 70.9264 27.4138 70.9272C27.8522 70.9268 28.2193 71.0684 28.5153 71.3519C28.8169 71.6315 28.9841 71.9904 29.017 72.4287H30.1136C30.0796 71.7028 29.8101 71.1123 29.3051 70.6571C28.8038 70.2019 28.1732 69.9742 27.4132 69.9737ZM50.5686 69.9737C50.1015 69.9691 49.6388 70.0634 49.2108 70.2505C48.8014 70.4333 48.4755 70.6834 48.2333 71.0006C47.9955 71.3138 47.8768 71.6397 47.8772 71.9782H49.0412C49.0412 71.6814 49.1812 71.4287 49.4611 71.2202C49.7406 71.0116 50.0867 70.9074 50.4994 70.9074C50.9718 70.9074 51.3291 71.0285 51.5714 71.2707C51.8132 71.5081 51.9341 71.8292 51.9341 72.2338V72.7662H50.8074C49.8341 72.7662 49.0781 72.9625 48.5395 73.3551C48.0053 73.7437 47.7382 74.2908 47.7382 74.9962C47.7382 75.5761 47.9514 76.0559 48.3777 76.4357C48.8072 76.8115 49.3558 76.9994 50.0236 76.9994C50.7711 76.9994 51.4142 76.7199 51.9528 76.1608C51.9941 76.5029 52.0482 76.7405 52.1152 76.8737H53.3303V76.7738C53.1719 76.4069 53.0927 75.9122 53.0927 75.2898V72.1719C53.0755 71.4873 52.8455 70.9511 52.4027 70.5633C51.9608 70.1703 51.3498 69.9737 50.5686 69.9737ZM71.0127 69.9737C70.4782 69.9725 69.9554 70.1295 69.51 70.4249C69.0504 70.7213 68.6912 71.1348 68.4326 71.6653C68.1779 72.1911 68.0506 72.7899 68.0506 73.4616V73.6746C68.0506 74.6844 68.3389 75.4919 68.9156 76.0971C69.4911 76.6986 70.2379 76.9994 71.1558 76.9994C72.2916 76.9994 73.1434 76.5631 73.7113 75.6904L73.0038 75.1394C72.7996 75.4061 72.5464 75.6315 72.2579 75.8035C71.9744 75.9703 71.6283 76.0537 71.2196 76.0537C70.6429 76.0537 70.1671 75.8492 69.7921 75.4401C69.4203 75.0271 69.2258 74.4867 69.2086 73.8189H73.7985V73.3359C73.7985 72.2547 73.5545 71.4241 73.0664 70.8442C72.5783 70.2643 71.8938 69.9742 71.0127 69.9737ZM59.2034 70.1001V76.8737H60.362V70.1001H59.2034ZM61.5519 70.1001L64.0051 76.8737H64.8894L67.3185 70.1001H66.1334L64.4562 75.303L62.7358 70.0995L61.5519 70.1001ZM13.5953 70.9266C14.079 70.9266 14.4632 71.089 14.7479 71.4139C15.0315 71.7355 15.1899 72.1907 15.2232 72.7794V72.8673H11.8291C11.9041 72.2537 12.1007 71.7774 12.4187 71.4386C12.5665 71.2738 12.7482 71.1428 12.9512 71.0545C13.1543 70.9663 13.374 70.9223 13.5953 70.9266ZM71.0127 70.9266C71.4967 70.9266 71.8805 71.089 72.1641 71.4139C72.448 71.7355 72.6064 72.1907 72.6393 72.7794V72.8673H69.2465C69.3215 72.2537 69.5178 71.7774 69.8354 71.4386C69.9833 71.2737 70.1651 71.1426 70.3682 71.0544C70.5714 70.9662 70.7912 70.9222 71.0127 70.9266ZM20.8207 73.5873H21.7291V74.9769C21.5831 75.2777 21.3473 75.522 21.0216 75.7096C20.7083 75.8936 20.3515 75.9908 19.9881 75.9912C19.608 75.9912 19.2971 75.8889 19.0557 75.6844C18.8131 75.4799 18.6918 75.1961 18.6918 74.8332C18.6918 74.003 19.4016 73.5879 20.8213 73.5879L20.8207 73.5873ZM51.0252 73.5873H51.9335V74.9769C51.7879 75.2777 51.5523 75.522 51.2267 75.7096C50.913 75.8938 50.5558 75.991 50.192 75.9912C49.813 75.9912 49.5022 75.8889 49.2596 75.6844C49.0181 75.4799 48.8972 75.1961 48.8968 74.8332C48.8968 74.003 49.6067 73.5879 51.0264 73.5879L51.0252 73.5873Z" fill="#61DAFB"/>
</svg>
