<svg width="77" height="77" viewBox="0 0 77 77" fill="none" xmlns="http://www.w3.org/2000/svg">
<path d="M38.5 45.3578C42.2874 45.3578 45.3578 42.2875 45.3578 38.5C45.3578 34.7126 42.2874 31.6422 38.5 31.6422C34.7125 31.6422 31.6422 34.7126 31.6422 38.5C31.6422 42.2875 34.7125 45.3578 38.5 45.3578Z" fill="#61DAFB"/>
<path d="M64.5476 27.1906C63.2242 26.7094 61.8406 26.2282 60.3969 25.8071C60.7578 24.3633 61.0586 22.9196 61.2992 21.536C62.5625 13.5953 61.1789 8.00081 57.3289 5.83518C56.1859 5.17346 54.9226 4.87268 53.4789 4.87268C49.2679 4.87268 43.914 8.00081 38.5 13.2344C33.0859 8.00081 27.732 4.87268 23.5211 4.87268C22.0773 4.87268 20.814 5.17346 19.6711 5.83518C15.8211 8.06096 14.4375 13.6555 15.7008 21.536C15.9414 22.9196 16.2422 24.3633 16.6031 25.8071C15.1594 26.2282 13.7758 26.6492 12.4523 27.1906C4.93279 30.0781 0.842163 34.0485 0.842163 38.5C0.842163 42.9516 4.99295 46.9219 12.4523 49.8094C13.7758 50.2907 15.1594 50.7719 16.6031 51.193C16.2422 52.6367 15.9414 54.0805 15.7008 55.4641C14.4375 63.4047 15.8211 68.9992 19.6711 71.1649C20.814 71.8266 22.0773 72.1274 23.5211 72.1274C27.7922 72.1274 33.1461 68.9992 38.5 63.7657C43.914 68.9992 49.2679 72.1274 53.4789 72.1274C54.9226 72.1274 56.1859 71.8266 57.3289 71.1649C61.1789 68.9391 62.5625 63.3446 61.2992 55.4641C61.0586 54.0805 60.7578 52.6367 60.3969 51.193C61.8406 50.7719 63.2242 50.3508 64.5476 49.8094C72.0672 46.9219 76.1578 42.9516 76.1578 38.5C76.1578 34.0485 72.0672 30.0781 64.5476 27.1906ZM55.6445 8.84299C58.1109 10.2867 58.9531 14.7383 57.9304 21.0547C57.75 22.318 57.4492 23.6414 57.0883 25.025C53.9601 24.3032 50.6515 23.8219 47.1625 23.5211C45.1172 20.6336 43.0117 18.0469 40.9062 15.7008C45.3578 11.3094 49.8695 8.30159 53.539 8.30159C54.3211 8.30159 55.0429 8.48206 55.6445 8.84299ZM48.907 44.5157C47.8242 46.4407 46.5609 48.3657 45.2375 50.2906C43.0117 50.4711 40.7859 50.5313 38.5 50.5313C36.1539 50.5313 33.9281 50.4711 31.7625 50.2906C30.439 48.3657 29.2359 46.4407 28.1531 44.5157C27.0101 42.5305 25.9273 40.4852 24.9648 38.5C25.9273 36.5149 27.0101 34.4696 28.1531 32.4844C29.2359 30.5594 30.4992 28.6344 31.8226 26.7094C34.0484 26.5289 36.2742 26.4688 38.5601 26.4688C40.9062 26.4688 43.132 26.5289 45.2976 26.7094C46.6211 28.6344 47.8242 30.5594 48.907 32.4844C50.05 34.4696 51.1328 36.5149 52.0953 38.5C51.0726 40.4852 50.05 42.4703 48.907 44.5157ZM53.9 42.5305C54.8023 44.636 55.5242 46.6813 56.1859 48.7266C54.1406 49.2078 51.975 49.5688 49.689 49.8696C50.4109 48.7266 51.1929 47.5235 51.8547 46.2602C52.5765 44.9969 53.2383 43.7336 53.9 42.5305ZM38.5 58.8328C37.0562 57.2688 35.6726 55.5844 34.3492 53.8399C35.7328 53.9 37.1164 53.9602 38.5 53.9602C39.8836 53.9602 41.2672 53.9 42.6508 53.8399C41.3273 55.5844 39.9437 57.2688 38.5 58.8328ZM27.3109 49.8094C25.025 49.5086 22.8593 49.1477 20.814 48.6664C21.4758 46.6813 22.1976 44.5758 23.1 42.4703C23.7617 43.6735 24.4234 44.9367 25.1453 46.1399C25.8672 47.4633 26.589 48.6063 27.3109 49.8094ZM23.1 34.4696C22.1976 32.3641 21.4758 30.3188 20.814 28.2735C22.8593 27.7922 25.025 27.4313 27.3109 27.1305C26.589 28.2735 25.807 29.4766 25.1453 30.7399C24.4234 32.0031 23.7617 33.2664 23.1 34.4696ZM38.5 18.1672C39.9437 19.7313 41.3273 21.4156 42.6508 23.1602C41.2672 23.1 39.8836 23.0399 38.5 23.0399C37.1164 23.0399 35.7328 23.1 34.3492 23.1602C35.6726 21.4156 37.0562 19.7313 38.5 18.1672ZM51.8547 30.8L49.689 27.1906C51.975 27.4914 54.1406 27.8524 56.1859 28.3336C55.5242 30.3188 54.8023 32.4242 53.9 34.5297C53.2383 33.2664 52.5765 32.0031 51.8547 30.8ZM19.0695 21.0547C18.0469 14.7383 18.889 10.2867 21.3554 8.84299C21.957 8.48206 22.6789 8.30159 23.4609 8.30159C27.0703 8.30159 31.582 11.2492 36.0937 15.7008C33.9883 17.9867 31.8828 20.6336 29.8375 23.5211C26.3484 23.8219 23.0398 24.3633 19.9117 25.025C19.5508 23.6414 19.3101 22.318 19.0695 21.0547ZM4.21091 38.5C4.21091 35.6727 7.63982 32.6649 13.6554 30.4391C14.8586 29.9578 16.182 29.5367 17.5054 29.1758C18.4679 32.1836 19.6711 35.3719 21.1148 38.5602C19.6711 41.7485 18.4078 44.8766 17.5054 47.8844C9.20388 45.4781 4.21091 41.8688 4.21091 38.5ZM21.3554 68.1571C18.889 66.7133 18.0469 62.2617 19.0695 55.9453C19.25 54.6821 19.5508 53.3586 19.9117 51.975C23.0398 52.6969 26.3484 53.1782 29.8375 53.4789C31.8828 56.3664 33.9883 58.9532 36.0937 61.2992C31.6422 65.6907 27.1304 68.6985 23.4609 68.6985C22.6789 68.6985 21.957 68.518 21.3554 68.1571ZM57.9304 55.9453C58.9531 62.2617 58.1109 66.7133 55.6445 68.1571C55.0429 68.518 54.3211 68.6985 53.539 68.6985C49.9297 68.6985 45.4179 65.7508 40.9062 61.2992C43.0117 59.0133 45.1172 56.3664 47.1625 53.4789C50.6515 53.1782 53.9601 52.6367 57.0883 51.975C57.4492 53.3586 57.6898 54.6821 57.9304 55.9453ZM63.3445 46.561C62.1414 47.0422 60.8179 47.4633 59.4945 47.8242C58.532 44.8164 57.3289 41.6282 55.8851 38.4399C57.3289 35.2516 58.5922 32.1235 59.4945 29.1157C67.7961 31.5219 72.789 35.1313 72.789 38.5C72.789 41.3274 69.3 44.3352 63.3445 46.561Z" fill="#61DAFB"/>
</svg>
