<svg width="77" height="77" viewBox="0 0 77 77" fill="none" xmlns="http://www.w3.org/2000/svg">
<path d="M0 38.5C0 49.6848 17.2372 58.7528 38.5 58.7528C59.7628 58.7528 77 49.6848 77 38.5C77 27.3151 59.7622 18.2472 38.5 18.2472C17.2378 18.2472 0 27.3151 0 38.5Z" fill="url(#paint0_radial_80_273)"/>
<path d="M38.5 57.2489C58.9321 57.2489 75.4961 48.8541 75.4961 38.5C75.4961 28.1447 58.9321 19.7511 38.5 19.7511C18.0679 19.7511 1.50391 28.1447 1.50391 38.5C1.50391 48.8541 18.0679 57.2489 38.5 57.2489Z" fill="#777BB3"/>
<path d="M20.9175 40.8245C22.5977 40.8245 23.8513 40.5147 24.6448 39.9041C25.4304 39.2989 25.9724 38.2516 26.257 36.791C26.5217 35.4254 26.4206 34.4726 25.9562 33.9576C25.4822 33.4319 24.4565 33.1654 22.9081 33.1654H20.2227L18.735 40.8245H20.9175ZM12.1353 50.2588C12.0737 50.2587 12.0129 50.245 11.9572 50.2186C11.9015 50.1922 11.8523 50.1539 11.8132 50.1063C11.7741 50.0586 11.7461 50.003 11.731 49.9432C11.716 49.8835 11.7143 49.8211 11.7262 49.7607L15.6707 29.4652C15.6893 29.3703 15.7403 29.2848 15.8149 29.2233C15.8894 29.1617 15.9831 29.128 16.0797 29.1277H24.5822C27.2544 29.1277 29.2431 29.8532 30.4938 31.2843C31.7499 32.722 32.1385 34.7336 31.647 37.2608C31.4467 38.2901 31.1026 39.246 30.6243 40.1026C30.1266 40.9838 29.4914 41.7799 28.7426 42.4607C27.8216 43.3222 26.7791 43.9478 25.6464 44.3153C24.5323 44.6787 23.1006 44.8628 21.3933 44.8628H17.95L16.9671 49.9207C16.9485 50.0159 16.8974 50.1017 16.8226 50.1633C16.7477 50.225 16.6538 50.2587 16.5568 50.2588H12.1353Z" fill="black"/>
<path d="M20.5674 33.5829H22.9081C24.7772 33.5829 25.4262 33.9931 25.647 34.238C26.0122 34.6434 26.082 35.4994 25.8461 36.7116C25.5821 38.0693 25.0924 39.0324 24.3904 39.5726C23.6721 40.126 22.5027 40.4064 20.9175 40.4064H19.2416L20.5674 33.5829ZM24.5823 28.7102H16.0804C15.8865 28.7102 15.6986 28.7776 15.549 28.9008C15.3993 29.0241 15.2971 29.1955 15.2598 29.3858L11.3154 49.6819C11.2921 49.8028 11.2958 49.9273 11.3262 50.0466C11.3566 50.1659 11.413 50.277 11.4913 50.372C11.5697 50.467 11.668 50.5436 11.7793 50.5961C11.8906 50.6487 12.0122 50.6761 12.1353 50.6763H16.5568C16.7507 50.6761 16.9384 50.6085 17.088 50.4852C17.2376 50.3619 17.3396 50.1904 17.3767 50.0001L18.2941 45.2802H21.3928C23.1445 45.2802 24.6196 45.0889 25.7764 44.7124C26.9656 44.3262 28.0599 43.6711 29.0284 42.7651C29.8084 42.055 30.4702 41.225 30.9889 40.3065C31.4888 39.412 31.8485 38.4134 32.0567 37.3402C32.574 34.6795 32.1535 32.5494 30.8078 31.0094C29.4748 29.4832 27.3801 28.7096 24.5823 28.7096V28.7102ZM18.228 41.2413H20.9175C22.7002 41.2417 24.0276 40.9059 24.8999 40.2337C25.7721 39.5624 26.3613 38.4413 26.6673 36.8704C26.9592 35.3617 26.8259 34.2973 26.2672 33.6773C25.7078 33.0573 24.5881 32.7473 22.9081 32.7473H19.8786L18.228 41.2413ZM24.5829 29.544C27.1407 29.544 29.0061 30.2153 30.1792 31.558C31.3522 32.9007 31.7052 34.7747 31.2379 37.1802C31.0446 38.1716 30.7188 39.0775 30.2604 39.8981C29.8012 40.7194 29.2015 41.4707 28.4611 42.1521C27.5788 42.9783 26.5979 43.5668 25.5183 43.9177C24.4391 44.269 23.0641 44.4445 21.3934 44.4441H17.6059L16.5574 49.8401H12.1359L16.081 29.544H24.5829Z" fill="white"/>
<path d="M41.784 44.8628C41.7223 44.8629 41.6614 44.8493 41.6057 44.823C41.5499 44.7968 41.5006 44.7585 41.4614 44.7109C41.4222 44.6633 41.394 44.6077 41.3788 44.5479C41.3636 44.4882 41.3619 44.4258 41.3737 44.3653L43.1183 35.3852C43.2849 34.5309 43.244 33.9185 43.004 33.6587C42.8566 33.5005 42.415 33.2352 41.109 33.2352H37.9472L35.7539 44.5253C35.7351 44.6204 35.6838 44.7059 35.6089 44.7674C35.5339 44.8288 35.44 44.8623 35.3431 44.8622H30.9577C30.8961 44.8622 30.8352 44.8486 30.7795 44.8224C30.7237 44.7962 30.6744 44.758 30.6352 44.7105C30.5959 44.663 30.5677 44.6075 30.5524 44.5478C30.5371 44.4881 30.5352 44.4258 30.5468 44.3653L34.4918 24.0692C34.5105 23.9741 34.5617 23.8884 34.6365 23.8269C34.7113 23.7653 34.8052 23.7317 34.9021 23.7317H39.2875C39.3491 23.7316 39.41 23.7452 39.4657 23.7714C39.5215 23.7977 39.5707 23.8359 39.61 23.8834C39.6492 23.9308 39.6775 23.9864 39.6928 24.0461C39.7081 24.1058 39.71 24.1681 39.6984 24.2286L38.7467 29.1277H42.1473C44.7383 29.1277 46.4948 29.5837 47.5181 30.5239C48.5606 31.4822 48.8866 33.0144 48.4854 35.0796L46.65 44.5253C46.6312 44.6203 46.58 44.7058 46.5052 44.7672C46.4304 44.8286 46.3366 44.8622 46.2398 44.8622L41.784 44.8628Z" fill="black"/>
<path d="M39.288 23.3136H34.902C34.7081 23.3136 34.5201 23.3811 34.3704 23.5045C34.2208 23.6278 34.1186 23.7994 34.0815 23.9898L30.137 44.2853C30.1137 44.4062 30.1173 44.5308 30.1476 44.6502C30.178 44.7696 30.2344 44.8808 30.3127 44.9758C30.391 45.0709 30.4894 45.1475 30.6008 45.2001C30.7122 45.2527 30.8338 45.2801 30.957 45.2803H35.343C35.5369 45.2802 35.7249 45.2127 35.8745 45.0894C36.0242 44.966 36.1264 44.7945 36.1635 44.6041L38.2912 33.6527H41.1077C42.4119 33.6527 42.6862 33.9312 42.6965 33.9438C42.7759 34.028 42.8799 34.4221 42.7079 35.3057L40.9634 44.2853C40.94 44.4063 40.9436 44.5309 40.974 44.6504C41.0044 44.7698 41.0608 44.881 41.1392 44.9761C41.2176 45.0712 41.3161 45.1477 41.4275 45.2003C41.539 45.2529 41.6607 45.2802 41.7839 45.2803H46.2403C46.4341 45.2801 46.6219 45.2125 46.7715 45.0892C46.921 44.9659 47.0231 44.7944 47.0602 44.6041L48.8956 35.1596C49.3257 32.9422 48.9575 31.2795 47.8007 30.2165C46.6963 29.2023 44.8471 28.7096 42.1472 28.7096H39.2537L40.1085 24.3092C40.1321 24.1882 40.1285 24.0634 40.0981 23.9439C40.0678 23.8244 40.0114 23.7131 39.933 23.618C39.8546 23.5228 39.7561 23.4462 39.6446 23.3936C39.5331 23.341 39.4113 23.3136 39.288 23.3136ZM39.288 24.1498L38.2395 29.5446H42.1472C44.606 29.5446 46.3018 29.9737 47.2347 30.8319C48.1683 31.6894 48.4486 33.079 48.0756 35.0008L46.2397 44.4447H41.7839L43.529 35.4646C43.7275 34.4431 43.6544 33.7465 43.3095 33.3747C42.9646 33.0034 42.2311 32.8177 41.1089 32.8177H37.6024L35.343 44.4441H30.9564L34.9014 24.148H39.288V24.1498Z" fill="white"/>
<path d="M55.4256 40.8245C57.1057 40.8245 58.36 40.5147 59.1541 39.9041C59.9385 39.2989 60.4811 38.2516 60.7656 36.791C61.0303 35.4254 60.9299 34.4726 60.4649 33.9576C59.9908 33.4319 58.9652 33.1654 57.4167 33.1654H54.732L53.2431 40.8245H55.4256ZM46.6452 50.2588C46.5835 50.2589 46.5225 50.2453 46.4667 50.219C46.4108 50.1927 46.3615 50.1543 46.3223 50.1067C46.2831 50.0591 46.2549 50.0033 46.2398 49.9435C46.2246 49.8837 46.223 49.8212 46.2349 49.7607L50.1794 29.4652C50.198 29.3701 50.2492 29.2844 50.324 29.2229C50.3988 29.1613 50.4927 29.1277 50.5896 29.1277H59.0915C61.7636 29.1277 63.7524 29.8532 65.0025 31.2843C66.2591 32.722 66.6471 34.7336 66.1556 37.2608C65.9676 38.2562 65.6226 39.2154 65.1336 40.1026C64.6359 40.9838 64.0007 41.7799 63.2519 42.4607C62.3315 43.3222 61.2878 43.9478 60.1557 44.3153C59.0416 44.6787 57.6099 44.8628 55.902 44.8628H52.4593L51.4769 49.9207C51.4583 50.016 51.4072 50.1018 51.3322 50.1635C51.2572 50.2252 51.1631 50.2589 51.0661 50.2588H46.6452Z" fill="black"/>
<path d="M55.0761 33.5829H57.4168C59.2858 33.5829 59.9349 33.9931 60.1551 34.238C60.522 34.6434 60.5906 35.4994 60.3554 36.7116C60.0907 38.0693 59.6011 39.0324 58.899 39.5726C58.1802 40.126 57.0107 40.4064 55.4262 40.4064H53.7502L55.0761 33.5829ZM59.0909 28.7102H50.589C50.3953 28.7104 50.2076 28.7778 50.058 28.901C49.9084 29.0242 49.8063 29.1956 49.7691 29.3858L45.8241 49.6819C45.8008 49.8028 45.8045 49.9274 45.8349 50.0468C45.8654 50.1661 45.9218 50.2773 46.0002 50.3723C46.0786 50.4673 46.177 50.5438 46.2884 50.5963C46.3998 50.6489 46.5214 50.6762 46.6446 50.6763H51.0661C51.2599 50.6761 51.4477 50.6085 51.5973 50.4852C51.7468 50.3619 51.8489 50.1904 51.886 50.0001L52.8034 45.2802H55.9014C57.6526 45.2802 59.1282 45.0889 60.2844 44.7124C61.4743 44.3262 62.5686 43.6711 63.5377 42.7645C64.3174 42.0545 64.979 41.2248 65.4976 40.3065C65.9981 39.412 66.3566 38.4134 66.5653 37.3402C67.0827 34.6795 66.6628 32.5494 65.3165 31.0094C63.9834 29.4832 61.8894 28.7096 59.0903 28.7096L59.0909 28.7102ZM52.7366 41.2413H55.4256C57.2082 41.2417 58.5361 40.9059 59.4092 40.2337C60.2814 39.5624 60.8701 38.4413 61.1753 36.8704C61.4685 35.3617 61.3352 34.2973 60.7753 33.6773C60.2154 33.0573 59.0959 32.7473 57.4168 32.7473H54.3879L52.7366 41.2413ZM59.0909 29.544C61.6488 29.544 63.5142 30.2153 64.6873 31.558C65.8603 32.9007 66.213 34.7747 65.7454 37.1802C65.5529 38.1716 65.2273 39.0775 64.7685 39.8981C64.3097 40.7194 63.7097 41.4707 62.9686 42.1521C62.0863 42.9783 61.1054 43.5668 60.0257 43.9177C58.9469 44.269 57.5722 44.4445 55.9014 44.4441H52.1146L51.0649 49.8401H46.6434L50.5884 29.544H59.0909Z" fill="white"/>
<defs>
<radialGradient id="paint0_radial_80_273" cx="0" cy="0" r="1" gradientUnits="userSpaceOnUse" gradientTransform="translate(23.1156 25.3673) scale(50.5561 50.5561)">
<stop stop-color="#AEB2D5"/>
<stop offset="0.3" stop-color="#AEB2D5"/>
<stop offset="0.75" stop-color="#484C89"/>
<stop offset="1" stop-color="#484C89"/>
</radialGradient>
</defs>
</svg>
