<svg width="77" height="77" viewBox="0 0 77 77" fill="none" xmlns="http://www.w3.org/2000/svg">
<g clip-path="url(#clip0_80_249)">
<path d="M38.5024 15.4012C28.2355 15.4012 21.8211 20.5325 19.2524 30.7994C23.1012 25.6675 27.5942 23.7431 32.7262 25.0262C35.6564 25.7565 37.7504 27.8812 40.0695 30.2357C43.8437 34.0659 48.2122 38.5 57.7524 38.5C68.0186 38.5 74.4337 33.368 77.0024 23.0988C73.1524 28.2333 68.6609 30.1587 63.528 28.875C60.5984 28.1441 58.5067 26.02 56.1847 23.6655C52.4129 19.8353 48.0456 15.4012 38.5024 15.4012ZM19.2524 38.5C8.98611 38.5 2.57105 43.6319 0.00238037 53.9012C3.85198 48.7666 8.34325 46.8412 13.4762 48.125C16.4064 48.8559 18.5004 50.98 20.8195 53.3345C24.5937 57.1647 28.9622 61.5988 38.5024 61.5988C48.7686 61.5988 55.1837 56.4675 57.7524 46.2006C53.9024 51.3327 49.4109 53.2571 44.278 51.9738C41.3484 51.2435 39.2567 49.1188 36.9347 46.7642C33.1629 42.9341 28.7956 38.5 19.2524 38.5Z" fill="#38BDF8"/>
</g>
<defs>
<clipPath id="clip0_80_249">
<rect width="77" height="77" fill="white"/>
</clipPath>
</defs>
</svg>
