<svg width="1287" height="828" viewBox="0 0 1287 828" fill="none" xmlns="http://www.w3.org/2000/svg">
<path d="M1287 0H0V828H1287V0Z" fill="#F379A3"/>
<path d="M1287 671.646C1214.21 625.554 1141.28 579.462 1048.48 555.864C955.526 532.404 842.556 531.438 794.794 474.996C747.032 418.554 764.478 306.498 741.312 218.04C718.289 129.72 654.654 64.86 591.019 0H1287V671.646Z" fill="#F04E7E"/>
<path d="M1287 447.81C1238.38 417.036 1189.9 386.262 1127.98 370.53C1066.07 354.936 990.704 354.246 958.815 316.71C927.069 279.036 938.652 204.378 923.208 145.452C907.764 86.526 865.436 43.194 822.965 0H1287V447.81Z" fill="#F379A3"/>
<path d="M1287 223.836C1262.69 208.518 1238.38 193.2 1207.49 185.334C1176.46 177.468 1138.85 177.192 1122.98 158.286C1106.96 139.518 1112.83 102.12 1105.1 72.726C1097.38 43.194 1076.22 21.666 1055.05 0H1287V223.836Z" fill="#F379A3"/>
<path d="M0 156.354C94.809 162.15 189.618 167.946 266.409 207.414C343.2 246.882 401.973 320.022 457.028 386.952C512.083 453.882 563.277 514.74 602.459 587.19C641.641 659.64 668.811 743.82 695.981 828H0V156.354Z" fill="#F379A3"/>
<path d="M0 380.19C63.206 384.054 126.412 387.918 177.606 414.276C228.8 440.634 267.982 489.348 304.733 533.922C341.341 578.634 375.518 619.068 401.687 667.506C427.713 715.806 445.874 771.834 464.035 828H0V380.19Z" fill="#F379A3"/>
<path d="M0 604.164C31.603 606.096 63.206 608.028 88.803 621.138C114.4 634.248 133.991 658.674 152.295 681.03C170.742 703.248 187.759 723.534 200.772 747.684C213.928 771.834 222.937 799.986 231.946 828H0V604.164Z" fill="#F379A3"/>
</svg>
