<svg width="86" height="86" viewBox="0 0 86 86" fill="none" xmlns="http://www.w3.org/2000/svg">
<g filter="url(#filter0_d_80_222)">
<path d="M43.0036 7.16675C23.2057 7.16675 7.1703 23.2022 7.1703 43.0001C7.16381 50.5226 9.52726 57.8559 13.9251 63.959C18.3229 70.062 24.5316 74.6245 31.6696 76.9988C33.4612 77.3105 34.1349 76.2355 34.1349 75.2931C34.1349 74.4438 34.0883 71.6237 34.0883 68.6209C25.087 70.28 22.7578 66.4279 22.0411 64.4105C21.6362 63.3785 19.8911 60.2001 18.3682 59.3473C17.1141 58.6772 15.3224 57.0181 18.3216 56.9751C21.1453 56.9285 23.1591 59.573 23.8328 60.648C27.0578 66.066 32.2071 64.5431 34.2675 63.6043C34.5828 61.2751 35.5216 59.7092 36.5536 58.8133C28.5807 57.9175 20.2495 54.8251 20.2495 41.1188C20.2495 37.2202 21.6362 33.9987 23.9224 31.4904C23.5641 30.5946 22.3099 26.9217 24.2807 21.9946C24.2807 21.9946 27.28 21.0522 34.1349 25.6639C37.0523 24.8564 40.0661 24.4501 43.0932 24.4563C46.1391 24.4563 49.1849 24.8577 52.0516 25.6639C58.9065 21.0056 61.9057 21.9946 61.9057 21.9946C63.8765 26.9217 62.6224 30.5946 62.264 31.4904C64.5466 33.9987 65.937 37.1772 65.937 41.1188C65.937 54.8717 57.5627 57.9175 49.5898 58.8133C50.887 59.9313 52.0086 62.0813 52.0086 65.4425C52.0086 70.2334 51.962 74.0855 51.962 75.2967C51.962 76.2355 52.6356 77.3535 54.4273 76.9952C61.5385 74.5911 67.7174 70.0188 72.0951 63.921C76.4729 57.8232 78.8295 50.5066 78.8334 43.0001C78.8334 23.2022 62.798 7.16675 43.0001 7.16675" fill="black"/>
</g>
<defs>
<filter id="filter0_d_80_222" x="3.17029" y="7.16675" width="79.6631" height="77.897" filterUnits="userSpaceOnUse" color-interpolation-filters="sRGB">
<feFlood flood-opacity="0" result="BackgroundImageFix"/>
<feColorMatrix in="SourceAlpha" type="matrix" values="0 0 0 0 0 0 0 0 0 0 0 0 0 0 0 0 0 0 127 0" result="hardAlpha"/>
<feOffset dy="4"/>
<feGaussianBlur stdDeviation="2"/>
<feComposite in2="hardAlpha" operator="out"/>
<feColorMatrix type="matrix" values="0 0 0 0 0 0 0 0 0 0 0 0 0 0 0 0 0 0 0.25 0"/>
<feBlend mode="normal" in2="BackgroundImageFix" result="effect1_dropShadow_80_222"/>
<feBlend mode="normal" in="SourceGraphic" in2="effect1_dropShadow_80_222" result="shape"/>
</filter>
</defs>
</svg>
