<svg width="77" height="77" viewBox="0 0 77 77" fill="none" xmlns="http://www.w3.org/2000/svg">
<g clip-path="url(#clip0_80_239)">
<path d="M58.9531 0H18.0469C8.07986 0 0 8.07986 0 18.0469V58.9531C0 68.9201 8.07986 77 18.0469 77H58.9531C68.9201 77 77 68.9201 77 58.9531V18.0469C77 8.07986 68.9201 0 58.9531 0Z" fill="#E14E1D"/>
<path d="M14.4375 11.4297L17.0272 40.4831H50.3267L49.2093 52.9444L38.4877 55.8433L27.7862 52.9486L27.0706 44.9472H17.4273L18.8063 60.3716L38.4856 65.8374L58.1897 60.3716L60.8315 30.8767H25.8142L24.9351 21.0381H61.702L62.5625 11.4297H14.4375Z" fill="white"/>
<path d="M38.5 11.4297H14.4375L17.0272 40.4831H38.5V30.8767H25.8142L24.9351 21.0381H38.5V11.4297ZM38.5 55.8391L38.4877 55.8433L27.7862 52.9486L27.0706 44.9472H17.4273L18.8063 60.3716L38.4856 65.8374L38.5003 65.8332L38.5 55.8391Z" fill="#EBEBEB"/>
</g>
<defs>
<clipPath id="clip0_80_239">
<rect width="77" height="77" fill="white"/>
</clipPath>
</defs>
</svg>
