<svg width="46" height="91" viewBox="0 0 46 91" fill="none" xmlns="http://www.w3.org/2000/svg">
<g filter="url(#filter0_d_58_293)">
<path d="M40.1361 78.715C41.1084 79.2392 41.4716 80.4523 40.9473 81.4246C40.4231 82.3968 39.21 82.76 38.2377 82.2358L40.1361 78.715ZM21.806 71.1039L22.7552 69.3435L21.806 71.1039ZM10.1119 29.6135L11.8407 30.6191L10.1119 29.6135ZM25.4785 0.383451C26.5463 0.101036 27.6409 0.737756 27.9234 1.80561L32.5256 19.2073C32.8081 20.2752 32.1713 21.3698 31.1035 21.6522C30.0356 21.9346 28.941 21.2979 28.6586 20.23L24.5677 4.76186L9.09951 8.85278C8.03166 9.1352 6.93704 8.49848 6.65462 7.43062C6.37221 6.36277 7.00893 5.26816 8.07678 4.98574L25.4785 0.383451ZM38.2377 82.2358L20.8568 72.8643L22.7552 69.3435L40.1361 78.715L38.2377 82.2358ZM8.38306 28.6078L24.261 1.31136L27.7186 3.32259L11.8407 30.6191L8.38306 28.6078ZM20.8568 72.8643C4.94388 64.2843 -0.707043 44.235 8.38306 28.6078L11.8407 30.6191C3.88681 44.2928 8.83137 61.836 22.7552 69.3435L20.8568 72.8643Z" fill="#4CAF50"/>
</g>
<defs>
<filter id="filter0_d_58_293" x="0.0374756" y="0.316467" width="45.1498" height="90.1593" filterUnits="userSpaceOnUse" color-interpolation-filters="sRGB">
<feFlood flood-opacity="0" result="BackgroundImageFix"/>
<feColorMatrix in="SourceAlpha" type="matrix" values="0 0 0 0 0 0 0 0 0 0 0 0 0 0 0 0 0 0 127 0" result="hardAlpha"/>
<feOffset dy="4"/>
<feGaussianBlur stdDeviation="2"/>
<feComposite in2="hardAlpha" operator="out"/>
<feColorMatrix type="matrix" values="0 0 0 0 0 0 0 0 0 0 0 0 0 0 0 0 0 0 0.25 0"/>
<feBlend mode="normal" in2="BackgroundImageFix" result="effect1_dropShadow_58_293"/>
<feBlend mode="normal" in="SourceGraphic" in2="effect1_dropShadow_58_293" result="shape"/>
</filter>
</defs>
</svg>
