<svg width="77" height="77" viewBox="0 0 77 77" fill="none" xmlns="http://www.w3.org/2000/svg">
<g clip-path="url(#clip0_80_267)">
<path d="M27.3711 77.6016C34.5297 77.6016 40.3047 71.8266 40.3047 64.668V51.7344H27.3711C20.2125 51.7344 14.4375 57.5094 14.4375 64.668C14.4375 71.8266 20.2125 77.6016 27.3711 77.6016Z" fill="#0ACF83"/>
<path d="M14.4375 38.8008C14.4375 31.6422 20.2125 25.8672 27.3711 25.8672H40.3047V51.7344H27.3711C20.2125 51.7344 14.4375 45.9594 14.4375 38.8008Z" fill="#A259FF"/>
<path d="M14.4375 12.9336C14.4375 5.775 20.2125 0 27.3711 0H40.3047V25.8672H27.3711C20.2125 25.8672 14.4375 20.0922 14.4375 12.9336Z" fill="#F24E1E"/>
<path d="M40.3047 0H53.2383C60.3969 0 66.1719 5.775 66.1719 12.9336C66.1719 20.0922 60.3969 25.8672 53.2383 25.8672H40.3047V0Z" fill="#FF7262"/>
<path d="M66.1719 38.8008C66.1719 45.9594 60.3969 51.7344 53.2383 51.7344C46.0797 51.7344 40.3047 45.9594 40.3047 38.8008C40.3047 31.6422 46.0797 25.8672 53.2383 25.8672C60.3969 25.8672 66.1719 31.6422 66.1719 38.8008Z" fill="#1ABCFE"/>
</g>
<defs>
<clipPath id="clip0_80_267">
<rect width="77" height="77" fill="white"/>
</clipPath>
</defs>
</svg>
