<svg width="79" height="77" viewBox="0 0 79 77" fill="none" xmlns="http://www.w3.org/2000/svg">
<g clip-path="url(#clip0_80_289)">
<path d="M65.834 0H13.166C5.93658 0 0.0759888 5.86059 0.0759888 13.09V63.7868C0.0759888 71.0162 5.93658 76.8768 13.166 76.8768H65.834C73.0634 76.8768 78.924 71.0162 78.924 63.7868V13.09C78.924 5.86059 73.0634 0 65.834 0Z" fill="#470137"/>
<path d="M41.526 20.2171L31.6876 36.4558L42.2135 53.6992C42.2812 53.8199 42.3 53.9616 42.2664 54.0959C42.2501 54.1532 42.215 54.1673 42.1611 54.1695L42.1014 54.1686L42.0287 54.1667C41.9892 54.1667 41.9452 54.1686 41.8962 54.1766H34.3071L34.158 54.1741C33.749 54.1633 33.4543 54.1048 33.2747 53.8048C32.5725 52.4368 31.8672 51.0704 31.1587 49.7056C30.525 48.4884 29.8741 47.2802 29.206 46.0814L28.9109 45.5535C28.1119 44.1334 27.3273 42.7052 26.5572 41.2692H26.5042C25.7931 42.6902 25.0613 44.1008 24.3091 45.5005C23.5504 46.9112 22.801 48.3129 22.061 49.7056C21.3205 51.0992 20.5623 52.4834 19.7867 53.8578C19.662 54.1381 19.4547 54.1966 19.1661 54.2061L19.046 54.208H11.7997L11.7683 54.2089L11.6648 54.2182C11.6072 54.2215 11.5727 54.2092 11.5616 54.1224C11.5419 53.9934 11.5702 53.8617 11.6411 53.7521L21.8494 36.9846L11.9053 20.1647C11.7998 20.0243 11.7821 19.9097 11.8524 19.821C11.8914 19.7758 11.9404 19.7403 11.9955 19.7174C12.0506 19.6944 12.1103 19.6845 12.1699 19.6886H19.6278C19.7905 19.6798 19.953 19.7069 20.104 19.768C20.2303 19.8398 20.339 19.9393 20.4212 20.0591C21.0559 21.4697 21.7612 22.8802 22.5372 24.2904C23.307 25.6915 24.0917 27.0845 24.8909 28.469C25.678 29.8322 26.4102 31.2261 27.086 32.6477H27.139C27.8316 31.2265 28.5457 29.8159 29.2812 28.4164C30.0035 27.0411 30.744 25.6569 31.5025 24.2639C32.2511 22.889 32.9829 21.505 33.6976 20.1121C33.7382 19.9815 33.8109 19.8632 33.9092 19.768C34.0398 19.7018 34.1866 19.6743 34.3324 19.6886H41.2614C41.3251 19.6727 41.3923 19.6779 41.4527 19.7035C41.5132 19.7291 41.5638 19.7736 41.5968 19.8303C41.6298 19.8871 41.6434 19.953 41.6357 20.0182C41.628 20.0834 41.5994 20.1443 41.554 20.1918L41.526 20.2171ZM57.0708 54.8588L56.7061 54.8628C54.2715 54.9 51.8591 54.3941 49.6446 53.3819C47.5815 52.4271 45.857 50.8685 44.699 48.9122C43.5313 46.9729 42.9322 44.5566 42.9018 41.6635L42.9006 41.4278C42.8807 39.0002 43.5012 36.6102 44.6993 34.4988C45.8984 32.4089 47.6465 30.6871 49.7542 29.5196L49.9356 29.4211C52.2272 28.1515 54.9953 27.5167 58.2399 27.5167L58.3816 27.5182L58.5436 27.5235L58.7253 27.5315L58.9274 27.5432L59.2668 27.5672L59.6512 27.598L59.9324 27.6227V17.2024C59.9324 16.9558 60.0381 16.8324 60.2496 16.8322H66.9144C66.9575 16.826 67.0015 16.8299 67.0428 16.8437C67.0841 16.8575 67.1216 16.8806 67.1524 16.9114C67.1832 16.9422 67.2064 16.9798 67.2202 17.0211C67.2339 17.0624 67.2379 17.1063 67.2317 17.1494V48.4099C67.2317 48.9349 67.252 49.5 67.2927 50.1051L67.3912 51.4773L67.4436 52.271C67.4501 52.3809 67.4233 52.4902 67.3666 52.5846C67.31 52.6791 67.2261 52.7542 67.126 52.8001C65.4067 53.5171 63.6158 54.0489 61.7838 54.3866C60.2285 54.6739 58.6521 54.8318 57.0708 54.8588ZM59.9324 48.3039V33.864C59.6465 33.7865 59.3546 33.7334 59.0598 33.7053C58.6995 33.6689 58.3375 33.6513 57.9754 33.6524C56.6918 33.6394 55.4233 33.9294 54.2729 34.4988C53.1525 35.0561 52.1957 35.8945 51.496 36.932C50.7976 37.9533 50.4366 39.2869 50.4127 40.9329L50.4115 41.1106C50.3859 42.2635 50.5742 43.4112 50.9668 44.4955C51.2866 45.3693 51.7921 46.1634 52.4483 46.8231C53.0763 47.43 53.8367 47.8826 54.6696 48.1453C55.5494 48.4301 56.4688 48.573 57.3935 48.5688C57.887 48.5688 58.3454 48.5511 58.7688 48.5155C59.1065 48.4901 59.4413 48.4344 59.7692 48.3492L59.9324 48.3039Z" fill="#FF61F6"/>
</g>
<defs>
<clipPath id="clip0_80_289">
<rect width="78.85" height="77" fill="white" transform="translate(0.0750122)"/>
</clipPath>
</defs>
</svg>
