<svg width="412" height="228" viewBox="0 0 412 228" fill="none" xmlns="http://www.w3.org/2000/svg">
<path d="M342.789 215.487C336.85 214.291 331.949 212.235 328.087 209.319C324.333 206.337 321.458 202.775 319.462 198.634C317.576 194.426 316.464 189.884 316.127 185.009C315.878 180.151 316.355 175.173 317.556 170.073C319.077 163.614 321.618 157.36 325.178 151.312C328.827 145.281 333.277 139.99 338.527 135.44C343.865 130.907 349.84 127.616 356.451 125.565C363.081 123.429 370.164 123.121 377.698 124.639C383.636 125.836 388.483 127.926 392.237 130.908C396.099 133.823 398.974 137.385 400.861 141.593C402.856 145.734 403.978 150.234 404.227 155.091C404.564 159.966 404.132 164.954 402.931 170.053C401.429 176.428 398.844 182.673 395.175 188.788C391.615 194.837 387.165 200.127 381.827 204.66C376.577 209.21 370.637 212.553 364.006 214.689C357.395 216.74 350.323 217.006 342.789 215.487ZM351.522 200.288C354.624 200.913 357.568 200.438 360.353 198.863C363.138 197.288 365.674 194.995 367.962 191.984C370.358 188.905 372.435 185.407 374.194 181.488C375.953 177.569 377.323 173.528 378.304 169.363C379.385 164.774 379.864 160.374 379.741 156.166C379.727 151.889 378.903 148.296 377.268 145.384C375.741 142.406 373.249 140.568 369.792 139.872C366.779 139.264 363.835 139.739 360.961 141.297C358.108 142.769 355.438 145.036 352.954 148.096C350.489 151.071 348.333 154.509 346.485 158.41C344.747 162.244 343.397 166.201 342.436 170.28C341.335 174.955 340.88 179.448 341.071 183.76C341.262 188.071 342.21 191.734 343.914 194.749C345.618 197.763 348.154 199.609 351.522 200.288Z" fill="white"/>
<g filter="url(#filter0_d_46_40)">
<path d="M291.906 219.221C289.292 219.221 286.957 218.188 284.903 216.121C282.943 213.964 281.963 210.01 281.963 204.259C281.963 203.27 281.963 202.416 281.963 201.697C282.056 200.889 282.103 200.305 282.103 199.945C282.476 196.35 282.99 191.902 283.643 186.6C284.39 181.208 285.23 175.592 286.164 169.75C287.098 163.819 288.031 158.113 288.965 152.631C289.992 147.149 290.925 142.387 291.766 138.343C292.606 134.209 293.306 131.378 293.866 129.85C294.893 127.154 296.714 125.043 299.328 123.515C302.036 121.897 304.79 121.089 307.591 121.089C310.018 121.089 312.212 121.763 314.173 123.111C316.227 124.458 317.627 126.75 318.374 129.985C317.814 131.783 316.927 134.973 315.713 139.556C314.5 144.049 313.193 149.576 311.792 156.136C310.392 162.696 309.038 169.93 307.731 177.838C306.517 185.746 305.537 194.014 304.79 202.641C304.697 204.169 304.557 205.966 304.37 208.033C304.183 210.01 304.043 212.032 303.95 214.099C302.829 215.267 301.149 216.435 298.908 217.604C296.667 218.682 294.333 219.221 291.906 219.221Z" fill="white"/>
</g>
<g filter="url(#filter1_d_46_40)">
<path d="M257.311 219.491C253.95 219.491 250.122 218.907 245.828 217.738C241.626 216.57 237.191 215.312 232.523 213.964C227.948 212.526 223.374 211.493 218.799 210.864C215.624 213.739 212.637 215.806 209.836 217.064C207.128 218.233 204.701 218.817 202.554 218.817C199.846 218.817 197.559 218.053 195.691 216.525C193.824 214.998 192.424 213.065 191.49 210.729C190.556 208.303 190.089 205.831 190.089 203.315C190.089 200.709 190.556 198.238 191.49 195.901C192.517 193.565 194.057 191.678 196.111 190.24C198.165 188.712 200.78 187.948 203.954 187.948C204.608 187.948 205.308 187.993 206.055 188.083C206.802 188.173 207.595 188.308 208.435 188.487C210.209 183.275 211.75 177.524 213.057 171.233C214.457 164.853 215.531 158.607 216.278 152.496C217.118 146.386 217.538 141.084 217.538 136.59C217.538 134.793 217.445 133.535 217.258 132.816C217.072 132.007 216.745 131.198 216.278 130.39L216.138 129.985C217.258 127.11 219.126 124.863 221.74 123.245C224.354 121.628 227.108 120.819 230.002 120.819C233.177 120.819 235.791 121.942 237.845 124.189C239.899 126.346 240.926 129.985 240.926 135.108C240.926 138.343 240.506 142.387 239.666 147.239C238.919 152.002 237.845 157.169 236.445 162.741C235.044 168.223 233.504 173.66 231.823 179.052C230.142 184.443 228.462 189.251 226.781 193.475C230.889 194.373 234.997 195.407 239.105 196.575C243.307 197.743 247.415 198.328 251.429 198.328C254.51 198.328 257.451 197.788 260.252 196.71C263.146 195.632 265.854 193.655 268.375 190.779C270.242 191.947 271.596 193.61 272.436 195.766C273.37 197.923 273.837 200.215 273.837 202.641C273.837 205.337 273.23 207.988 272.016 210.594C270.896 213.11 269.122 215.222 266.694 216.93C264.267 218.637 261.139 219.491 257.311 219.491Z" fill="white"/>
</g>
<g filter="url(#filter2_d_46_40)">
<path d="M150.798 219.491C144.543 219.491 139.128 218.412 134.553 216.256C130.072 214.009 126.337 210.999 123.35 207.224C120.455 203.36 118.261 199.002 116.767 194.149C115.367 189.296 114.667 184.174 114.667 178.782C114.667 171.952 115.74 165.122 117.888 158.293C120.129 151.463 123.35 145.217 127.551 139.556C131.846 133.894 137.074 129.356 143.236 125.941C149.398 122.437 156.447 120.684 164.383 120.684C170.638 120.684 176.007 121.808 180.488 124.054C185.063 126.211 188.797 129.221 191.692 133.086C194.679 136.86 196.873 141.173 198.274 146.026C199.768 150.879 200.515 156.001 200.515 161.393C200.515 168.133 199.394 174.963 197.153 181.882C195.006 188.712 191.785 194.958 187.49 200.619C183.289 206.281 178.107 210.864 171.945 214.368C165.783 217.783 158.734 219.491 150.798 219.491ZM155.98 202.371C159.248 202.371 162.095 201.293 164.523 199.136C166.95 196.98 168.958 194.149 170.545 190.644C172.225 187.05 173.486 183.095 174.326 178.782C175.166 174.468 175.586 170.11 175.586 165.707C175.586 160.854 175.026 156.316 173.906 152.092C172.879 147.778 171.198 144.319 168.864 141.713C166.624 139.017 163.683 137.669 160.041 137.669C156.867 137.669 154.02 138.747 151.499 140.904C148.978 142.971 146.831 145.801 145.057 149.396C143.283 152.901 141.929 156.81 140.995 161.123C140.155 165.347 139.735 169.616 139.735 173.929C139.735 178.872 140.342 183.5 141.555 187.813C142.769 192.127 144.59 195.632 147.017 198.328C149.445 201.024 152.432 202.371 155.98 202.371Z" fill="white"/>
</g>
<g filter="url(#filter3_d_46_40)">
<path d="M64.3384 219.086C60.9773 219.086 57.943 217.738 55.2355 215.042C52.5279 212.347 51.1741 207.898 51.1741 201.698C51.1741 196.665 51.781 191.722 52.9947 186.87C54.2085 182.017 55.5622 177.119 57.0561 172.177C58.6432 167.144 59.9503 161.977 60.9773 156.675C62.0977 151.283 62.4711 145.622 62.0977 139.691C59.5769 140.05 57.1027 140.679 54.6753 141.578C52.2478 142.476 41.5221 154.968 39.188 156.675C39.188 151.014 48.0465 135.242 49.0735 131.738C50.1005 128.143 52.1078 125.537 55.0954 123.919C58.0831 122.302 62.5178 121.493 68.3997 121.493C71.5741 121.493 75.1219 121.718 79.0432 122.167C82.9644 122.616 86.9791 123.066 91.0871 123.515C95.2884 123.964 99.2564 124.189 102.991 124.189C106.632 124.189 109.9 123.874 112.794 123.245C115.688 122.526 117.929 121.268 119.516 119.471C121.384 120.639 122.784 122.257 123.718 124.324C124.745 126.301 125.258 128.458 125.258 130.794C125.258 133.22 124.651 135.602 123.438 137.938C122.317 140.185 120.543 142.072 118.116 143.6C115.688 145.038 112.514 145.757 108.593 145.757C104.485 145.757 100.003 145.127 95.1484 143.869C90.2935 142.611 85.2985 141.533 80.1635 140.634C80.6304 142.611 80.9571 144.588 81.1439 146.565C81.4239 148.542 81.564 150.564 81.564 152.631C81.564 154.878 81.4706 157.124 81.2839 159.371C81.0972 161.528 80.8171 163.774 80.4436 166.111C82.4043 165.122 84.785 164.224 87.586 163.415C90.3869 162.606 93.2344 161.932 96.1287 161.393C99.1164 160.854 101.777 160.584 104.111 160.584C105.605 160.584 106.912 160.719 108.033 160.989C108.966 162.876 109.433 165.167 109.433 167.863C109.433 172.177 108.313 176.58 106.072 181.073L105.092 181.478C101.637 179.681 97.6225 178.288 93.0477 177.299C88.5663 176.311 83.8514 175.637 78.9031 175.277C77.9695 180.399 77.0825 185.612 76.2423 190.914C75.402 196.216 74.9819 201.653 74.9819 207.224C74.9819 208.392 74.9819 209.606 74.9819 210.864C75.0752 212.122 75.1686 213.38 75.262 214.638C72.181 217.604 68.5398 219.086 64.3384 219.086Z" fill="white"/>
</g>
<g filter="url(#filter4_d_46_40)">
<path d="M345.474 110.17C342.579 110.17 340.012 109.451 337.771 108.013C335.624 106.575 334.597 104.419 334.69 101.543C334.877 96.5105 335.25 90.9389 335.811 84.8281C336.464 78.7172 337.211 72.5166 338.051 66.226C338.892 59.8456 339.732 53.7348 340.572 47.8935C341.506 42.0523 342.346 36.8402 343.093 32.257C341.412 32.0773 339.778 31.9425 338.191 31.8527C336.604 31.7628 335.157 31.7179 333.85 31.7179C329.929 31.7179 326.381 32.0773 323.206 32.7962C320.125 33.5152 317.511 34.7733 315.364 36.5706C315.364 30.9091 315.831 26.3259 316.764 22.8212C317.791 19.2266 319.612 16.6205 322.226 15.003C324.934 13.3854 328.855 12.5766 333.99 12.5766C337.724 12.5766 341.879 12.8911 346.454 13.5202C351.122 14.0594 355.837 14.6435 360.599 15.2726C365.36 15.9016 369.795 16.2161 373.903 16.2161C377.264 16.2161 380.252 15.9016 382.866 15.2726C385.573 14.6435 387.627 13.5202 389.028 11.9026C391.082 12.5317 392.669 13.9246 393.789 16.0813C394.91 18.1482 395.47 20.4398 395.47 22.956C395.47 25.2026 394.956 27.4043 393.929 29.5611C392.902 31.628 391.268 33.3804 389.028 34.8182C386.787 36.1662 383.753 36.8402 379.925 36.8402C378.151 36.8402 375.957 36.7054 373.343 36.4358C370.822 36.0763 368.114 35.7168 365.22 35.3574C364.193 40.7493 363.119 47.2196 361.999 54.7682C360.972 62.227 360.085 70.2699 359.338 78.897C358.685 87.524 358.264 96.2859 358.078 105.182C356.397 106.89 354.39 108.148 352.056 108.957C349.815 109.766 347.621 110.17 345.474 110.17Z" fill="white"/>
</g>
<g filter="url(#filter5_d_46_40)">
<path d="M135.541 111.653C127.146 111.653 119.878 110.564 113.739 108.387C107.724 106.119 102.712 103.079 98.7025 99.2691C94.8182 95.368 91.8736 90.9679 89.8688 86.0689C87.9893 81.1698 87.0496 75.9986 87.0496 70.5552C87.0496 63.6602 88.4905 56.7653 91.3724 49.8703C94.3796 42.9753 98.7025 36.6701 104.341 30.9545C110.105 25.239 117.122 20.6574 125.391 17.2099C133.661 13.6717 143.121 11.9026 153.772 11.9026C162.167 11.9026 169.372 13.0367 175.386 15.3048C181.526 17.4821 186.538 20.5214 190.422 24.4225C194.432 28.2328 197.377 32.5875 199.256 37.4866C201.261 42.3856 202.263 47.5569 202.263 53.0003C202.263 59.8045 200.76 66.6995 197.752 73.6851C194.871 80.5801 190.548 86.8854 184.784 92.6009C179.145 98.3165 172.191 102.943 163.921 106.482C155.652 109.929 146.191 111.653 135.541 111.653ZM142.495 94.37C146.88 94.37 150.702 93.2813 153.96 91.104C157.218 88.9266 159.912 86.0688 162.042 82.5306C164.297 78.9017 165.989 74.9099 167.116 70.5552C168.244 66.2005 168.808 61.8004 168.808 57.355C168.808 52.4559 168.056 47.8744 166.553 43.6104C165.174 39.2557 162.919 35.7628 159.786 33.1319C156.779 30.4102 152.832 29.0493 147.946 29.0493C143.685 29.0493 139.864 30.138 136.481 32.3154C133.097 34.402 130.216 37.2598 127.835 40.8887C125.454 44.4269 123.637 48.3734 122.384 52.7281C121.257 56.9921 120.693 61.3014 120.693 65.6561C120.693 70.6459 121.507 75.3182 123.136 79.6729C124.765 84.0276 127.208 87.5658 130.466 90.2875C133.724 93.0092 137.734 94.37 142.495 94.37Z" fill="white"/>
</g>
<g filter="url(#filter6_d_46_40)">
<path d="M17.8645 111.248C14.6901 111.248 11.8425 110.125 9.32172 107.878C6.80091 105.542 5.5405 101.633 5.5405 96.151C5.5405 92.5564 6.054 88.5575 7.081 84.1541C8.20136 79.7507 9.50845 75.2125 11.0023 70.5395C12.5895 65.7767 14.1766 61.1936 15.7638 56.7902C17.351 52.3868 18.6581 48.3878 19.6851 44.7932C20.7121 41.1986 21.2256 38.3679 21.2256 36.301C21.2256 33.8746 20.2453 32.6614 18.2846 32.6614C15.9505 32.6614 13.7565 33.9645 11.7025 36.5706C9.6485 39.0868 7.36109 42.6364 4.84027 47.2196L4 46.95C4 39.8506 5.96063 33.6949 9.88191 28.4827C13.8032 23.1807 19.0782 19.0918 25.707 16.2161C32.4292 13.3405 39.8983 11.9026 48.1143 11.9026C56.4237 11.9026 63.1458 13.2955 68.2808 16.0813C73.5092 18.7773 77.3371 22.327 79.7646 26.7303C82.2854 31.0439 83.5458 35.6719 83.5458 40.6145C83.5458 44.8381 82.7055 49.0618 81.025 53.2854C79.4378 57.4192 77.1037 61.1936 74.0227 64.6084C71.0351 68.0233 67.4873 70.7642 63.3793 72.8311C59.2713 74.898 54.7431 75.9314 49.7948 75.9314C44.6598 75.9314 39.3381 74.6733 33.8297 72.1571C32.6159 76.5605 31.5423 81.0537 30.6086 85.6369C29.675 90.1301 29.2082 94.7581 29.2082 99.521C29.2082 101.857 29.3482 104.194 29.6283 106.53C28.0411 108.058 26.1739 109.226 24.0265 110.035C21.9725 110.844 19.9185 111.248 17.8645 111.248ZM40.2718 62.4517C44.0063 62.4517 47.274 61.4632 50.0749 59.4861C52.8758 57.4192 55.0232 54.8581 56.517 51.8027C58.1042 48.6574 58.8978 45.5121 58.8978 42.3668C58.8978 38.6824 57.6374 35.4023 55.1166 32.5266C52.6891 29.651 48.6745 28.2131 43.0727 28.2131C42.3258 28.2131 41.4388 28.258 40.4118 28.3479C39.4782 28.4378 38.4978 28.5726 37.4708 28.7523C38.2178 30.9989 38.6846 33.2456 38.8713 35.4922C39.1514 37.6489 39.2914 39.7608 39.2914 41.8277C39.2914 45.4223 39.0113 48.8821 38.4512 52.2071C37.891 55.5321 37.2374 58.8121 36.4905 62.0473C37.7976 62.3169 39.058 62.4517 40.2718 62.4517Z" fill="white"/>
</g>
<g filter="url(#filter7_d_46_40)">
<path d="M296.49 112.275C292.54 112.856 288.952 112.518 285.728 111.262C282.599 109.89 279.723 107.972 277.101 105.507C274.591 103.026 272.265 100.264 270.121 97.2198C268.074 94.0599 266.108 91.0407 264.225 88.1621C261.34 83.4968 258.735 79.4518 256.411 76.0274C254.069 72.5036 251.661 69.6004 249.185 67.3179C248.338 75.1788 247.835 82.6839 247.675 89.8329C247.628 96.9654 248.169 104.826 249.299 113.414C247.557 115.401 245.465 117.032 243.023 118.307C240.694 119.566 238.231 120.386 235.635 120.768C231.685 121.349 227.981 120.672 224.524 118.738C221.05 116.704 218.818 112.807 217.828 107.049C217.145 103.078 217.055 98.5103 217.556 93.3469C218.057 88.1835 218.814 82.8297 219.828 77.2854C220.955 71.7246 222.108 66.3127 223.286 61.0497C224.464 55.7867 225.389 51.0699 226.061 46.8993C226.715 42.6295 226.838 39.3032 226.428 36.9203C226.001 34.4383 224.829 33.3383 222.91 33.6205C220.765 33.9359 218.417 35.7574 215.865 39.0848C213.295 42.313 210.866 46.6912 208.576 52.2195L207.509 52.0711C206.485 46.114 207.039 40.5866 209.171 35.4886C211.303 30.3906 214.58 25.8879 218.999 21.9804C223.515 17.957 228.901 14.62 235.157 11.9693C241.526 9.30202 248.322 7.43715 255.545 6.3747C265.139 4.96363 273.157 5.15849 279.6 6.9593C286.026 8.66084 291.008 11.389 294.546 15.1439C298.18 18.783 300.399 22.9356 301.201 27.602C302.02 32.3676 301.412 37.2414 299.375 42.2235C297.451 47.189 294.215 51.5841 289.665 55.409C285.211 59.1179 279.584 61.7269 272.785 63.236C275.428 64.4759 277.809 66.2124 279.929 68.4455C282.032 70.5793 284.25 73.0523 286.585 75.8644C288.643 78.412 290.967 80.8187 293.555 83.0847C296.126 85.2514 299.274 86.0608 302.998 85.513C304.917 85.2307 306.429 84.6012 307.534 83.6243C308.622 82.5482 309.446 80.9508 310.008 78.8323L311.101 79.1297C311.921 80.536 312.507 81.9258 312.859 83.2991C313.324 84.6559 313.658 85.93 313.863 87.1214C314.938 93.3763 313.868 98.9288 310.652 103.779C307.418 108.53 302.698 111.362 296.49 112.275ZM255.295 52.3716C259.358 51.774 262.72 50.4651 265.382 48.445C268.139 46.3089 270.103 43.9333 271.273 41.3181C272.539 38.587 272.959 35.9804 272.532 33.4983C272.003 30.4205 270.188 27.939 267.087 26.0539C264.081 24.0529 259.588 23.4924 253.606 24.3722C252.703 24.505 251.752 24.6958 250.753 24.9444C249.85 25.0772 248.956 25.2597 248.07 25.4918C248.302 26.1702 248.478 26.8569 248.598 27.5518C248.7 28.1476 248.751 28.4454 248.751 28.4454C249.537 33.0124 250.07 37.4638 250.353 41.7994C250.748 46.1184 250.855 49.7673 250.673 52.7461C251.48 52.7292 252.23 52.7206 252.925 52.7203C253.715 52.6041 254.505 52.4879 255.295 52.3716Z" fill="white"/>
</g>
<defs>
<filter id="filter0_d_46_40" x="277.963" y="121.089" width="44.4119" height="106.133" filterUnits="userSpaceOnUse" color-interpolation-filters="sRGB">
<feFlood flood-opacity="0" result="BackgroundImageFix"/>
<feColorMatrix in="SourceAlpha" type="matrix" values="0 0 0 0 0 0 0 0 0 0 0 0 0 0 0 0 0 0 127 0" result="hardAlpha"/>
<feOffset dy="4"/>
<feGaussianBlur stdDeviation="2"/>
<feComposite in2="hardAlpha" operator="out"/>
<feColorMatrix type="matrix" values="0 0 0 0 0 0 0 0 0 0 0 0 0 0 0 0 0 0 0.25 0"/>
<feBlend mode="normal" in2="BackgroundImageFix" result="effect1_dropShadow_46_40"/>
<feBlend mode="normal" in="SourceGraphic" in2="effect1_dropShadow_46_40" result="shape"/>
</filter>
<filter id="filter1_d_46_40" x="186.089" y="120.819" width="91.7472" height="106.672" filterUnits="userSpaceOnUse" color-interpolation-filters="sRGB">
<feFlood flood-opacity="0" result="BackgroundImageFix"/>
<feColorMatrix in="SourceAlpha" type="matrix" values="0 0 0 0 0 0 0 0 0 0 0 0 0 0 0 0 0 0 127 0" result="hardAlpha"/>
<feOffset dy="4"/>
<feGaussianBlur stdDeviation="2"/>
<feComposite in2="hardAlpha" operator="out"/>
<feColorMatrix type="matrix" values="0 0 0 0 0 0 0 0 0 0 0 0 0 0 0 0 0 0 0.25 0"/>
<feBlend mode="normal" in2="BackgroundImageFix" result="effect1_dropShadow_46_40"/>
<feBlend mode="normal" in="SourceGraphic" in2="effect1_dropShadow_46_40" result="shape"/>
</filter>
<filter id="filter2_d_46_40" x="110.667" y="120.684" width="93.8478" height="106.807" filterUnits="userSpaceOnUse" color-interpolation-filters="sRGB">
<feFlood flood-opacity="0" result="BackgroundImageFix"/>
<feColorMatrix in="SourceAlpha" type="matrix" values="0 0 0 0 0 0 0 0 0 0 0 0 0 0 0 0 0 0 127 0" result="hardAlpha"/>
<feOffset dy="4"/>
<feGaussianBlur stdDeviation="2"/>
<feComposite in2="hardAlpha" operator="out"/>
<feColorMatrix type="matrix" values="0 0 0 0 0 0 0 0 0 0 0 0 0 0 0 0 0 0 0.25 0"/>
<feBlend mode="normal" in2="BackgroundImageFix" result="effect1_dropShadow_46_40"/>
<feBlend mode="normal" in="SourceGraphic" in2="effect1_dropShadow_46_40" result="shape"/>
</filter>
<filter id="filter3_d_46_40" x="35.188" y="119.471" width="94.0702" height="107.615" filterUnits="userSpaceOnUse" color-interpolation-filters="sRGB">
<feFlood flood-opacity="0" result="BackgroundImageFix"/>
<feColorMatrix in="SourceAlpha" type="matrix" values="0 0 0 0 0 0 0 0 0 0 0 0 0 0 0 0 0 0 127 0" result="hardAlpha"/>
<feOffset dy="4"/>
<feGaussianBlur stdDeviation="2"/>
<feComposite in2="hardAlpha" operator="out"/>
<feColorMatrix type="matrix" values="0 0 0 0 0 0 0 0 0 0 0 0 0 0 0 0 0 0 0.25 0"/>
<feBlend mode="normal" in2="BackgroundImageFix" result="effect1_dropShadow_46_40"/>
<feBlend mode="normal" in="SourceGraphic" in2="effect1_dropShadow_46_40" result="shape"/>
</filter>
<filter id="filter4_d_46_40" x="311.364" y="11.9026" width="88.106" height="106.267" filterUnits="userSpaceOnUse" color-interpolation-filters="sRGB">
<feFlood flood-opacity="0" result="BackgroundImageFix"/>
<feColorMatrix in="SourceAlpha" type="matrix" values="0 0 0 0 0 0 0 0 0 0 0 0 0 0 0 0 0 0 127 0" result="hardAlpha"/>
<feOffset dy="4"/>
<feGaussianBlur stdDeviation="2"/>
<feComposite in2="hardAlpha" operator="out"/>
<feColorMatrix type="matrix" values="0 0 0 0 0 0 0 0 0 0 0 0 0 0 0 0 0 0 0.25 0"/>
<feBlend mode="normal" in2="BackgroundImageFix" result="effect1_dropShadow_46_40"/>
<feBlend mode="normal" in="SourceGraphic" in2="effect1_dropShadow_46_40" result="shape"/>
</filter>
<filter id="filter5_d_46_40" x="83.0496" y="11.9026" width="123.214" height="107.75" filterUnits="userSpaceOnUse" color-interpolation-filters="sRGB">
<feFlood flood-opacity="0" result="BackgroundImageFix"/>
<feColorMatrix in="SourceAlpha" type="matrix" values="0 0 0 0 0 0 0 0 0 0 0 0 0 0 0 0 0 0 127 0" result="hardAlpha"/>
<feOffset dy="4"/>
<feGaussianBlur stdDeviation="2"/>
<feComposite in2="hardAlpha" operator="out"/>
<feColorMatrix type="matrix" values="0 0 0 0 0 0 0 0 0 0 0 0 0 0 0 0 0 0 0.25 0"/>
<feBlend mode="normal" in2="BackgroundImageFix" result="effect1_dropShadow_46_40"/>
<feBlend mode="normal" in="SourceGraphic" in2="effect1_dropShadow_46_40" result="shape"/>
</filter>
<filter id="filter6_d_46_40" x="0" y="11.9026" width="87.5458" height="107.346" filterUnits="userSpaceOnUse" color-interpolation-filters="sRGB">
<feFlood flood-opacity="0" result="BackgroundImageFix"/>
<feColorMatrix in="SourceAlpha" type="matrix" values="0 0 0 0 0 0 0 0 0 0 0 0 0 0 0 0 0 0 127 0" result="hardAlpha"/>
<feOffset dy="4"/>
<feGaussianBlur stdDeviation="2"/>
<feComposite in2="hardAlpha" operator="out"/>
<feColorMatrix type="matrix" values="0 0 0 0 0 0 0 0 0 0 0 0 0 0 0 0 0 0 0.25 0"/>
<feBlend mode="normal" in2="BackgroundImageFix" result="effect1_dropShadow_46_40"/>
<feBlend mode="normal" in="SourceGraphic" in2="effect1_dropShadow_46_40" result="shape"/>
</filter>
<filter id="filter7_d_46_40" x="203.01" y="5.44482" width="115.257" height="123.524" filterUnits="userSpaceOnUse" color-interpolation-filters="sRGB">
<feFlood flood-opacity="0" result="BackgroundImageFix"/>
<feColorMatrix in="SourceAlpha" type="matrix" values="0 0 0 0 0 0 0 0 0 0 0 0 0 0 0 0 0 0 127 0" result="hardAlpha"/>
<feOffset dy="4"/>
<feGaussianBlur stdDeviation="2"/>
<feComposite in2="hardAlpha" operator="out"/>
<feColorMatrix type="matrix" values="0 0 0 0 0 0 0 0 0 0 0 0 0 0 0 0 0 0 0.25 0"/>
<feBlend mode="normal" in2="BackgroundImageFix" result="effect1_dropShadow_46_40"/>
<feBlend mode="normal" in="SourceGraphic" in2="effect1_dropShadow_46_40" result="shape"/>
</filter>
</defs>
</svg>
