<svg width="1512" height="1543" viewBox="0 0 1512 1543" fill="none" xmlns="http://www.w3.org/2000/svg">
<rect width="1512" height="1543" fill="#EBEBEB"/>
<g filter="url(#filter0_d_1_102)">
<path d="M616.815 172.077C616.579 169.473 615.525 167.448 613.655 166.004C611.808 164.536 609.169 163.803 605.736 163.803C603.463 163.803 601.569 164.098 600.054 164.69C598.539 165.282 597.402 166.099 596.645 167.141C595.887 168.159 595.497 169.33 595.473 170.656C595.426 171.745 595.639 172.704 596.112 173.533C596.609 174.361 597.32 175.095 598.243 175.734C599.19 176.35 600.326 176.894 601.652 177.368C602.978 177.841 604.469 178.256 606.126 178.611L612.376 180.031C615.975 180.812 619.147 181.854 621.893 183.156C624.663 184.458 626.983 186.009 628.854 187.808C630.748 189.607 632.18 191.679 633.151 194.023C634.121 196.366 634.618 198.994 634.642 201.906C634.618 206.499 633.458 210.441 631.162 213.732C628.866 217.022 625.563 219.544 621.254 221.295C616.969 223.047 611.796 223.923 605.736 223.923C599.652 223.923 594.348 223.012 589.827 221.189C585.305 219.366 581.789 216.596 579.28 212.879C576.77 209.162 575.48 204.463 575.409 198.781H592.241C592.384 201.125 593.011 203.078 594.124 204.641C595.236 206.203 596.763 207.387 598.705 208.192C600.67 208.997 602.942 209.399 605.523 209.399C607.89 209.399 609.902 209.08 611.56 208.44C613.241 207.801 614.531 206.913 615.43 205.777C616.33 204.641 616.792 203.339 616.815 201.871C616.792 200.498 616.366 199.326 615.537 198.355C614.708 197.361 613.43 196.509 611.702 195.798C609.997 195.064 607.819 194.39 605.168 193.774L597.568 191.999C591.271 190.554 586.311 188.223 582.689 185.003C579.067 181.759 577.268 177.38 577.291 171.864C577.268 167.366 578.475 163.424 580.913 160.038C583.352 156.653 586.725 154.013 591.034 152.119C595.343 150.225 600.255 149.278 605.771 149.278C611.406 149.278 616.295 150.237 620.438 152.155C624.604 154.049 627.836 156.712 630.132 160.145C632.429 163.578 633.6 167.555 633.648 172.077H616.815ZM661.098 150.273V223H643.52V150.273H661.098ZM719.86 174.03C719.458 172.538 718.866 171.224 718.085 170.088C717.304 168.928 716.345 167.946 715.208 167.141C714.072 166.336 712.77 165.732 711.302 165.33C709.834 164.903 708.225 164.69 706.473 164.69C702.945 164.69 699.891 165.543 697.311 167.247C694.754 168.952 692.777 171.437 691.38 174.705C689.984 177.948 689.285 181.89 689.285 186.53C689.285 191.194 689.96 195.171 691.309 198.462C692.659 201.752 694.612 204.262 697.169 205.99C699.725 207.718 702.827 208.582 706.473 208.582C709.692 208.582 712.415 208.062 714.64 207.02C716.889 205.955 718.594 204.451 719.754 202.51C720.914 200.569 721.494 198.284 721.494 195.656L724.761 196.047H707.076V183.227H738.433V192.851C738.433 199.361 737.048 204.937 734.278 209.577C731.532 214.217 727.744 217.78 722.914 220.266C718.109 222.751 712.581 223.994 706.331 223.994C699.394 223.994 693.298 222.491 688.042 219.484C682.787 216.478 678.691 212.193 675.755 206.629C672.82 201.042 671.352 194.413 671.352 186.743C671.352 180.777 672.24 175.486 674.015 170.869C675.791 166.229 678.265 162.299 681.437 159.08C684.633 155.86 688.326 153.421 692.517 151.764C696.731 150.107 701.264 149.278 706.118 149.278C710.332 149.278 714.25 149.882 717.872 151.089C721.518 152.297 724.737 154.001 727.531 156.203C730.348 158.405 732.633 161.021 734.385 164.051C736.136 167.081 737.225 170.408 737.652 174.03H719.86ZM810.69 150.273V223H795.775L766.833 181.026H766.371V223H748.793V150.273H763.921L792.543 192.176H793.147V150.273H810.69ZM860.805 150.273V223H843.227V150.273H860.805ZM933.737 150.273V223H918.822L889.88 181.026H889.418V223H871.84V150.273H886.968L915.59 192.176H916.194V150.273H933.737Z" fill="black"/>
</g>
<rect x="324.5" y="604.5" width="863" height="136" rx="48.5" fill="#EBEBEB" stroke="black" stroke-width="3"/>
<rect x="378" y="573" width="268" height="59" fill="#EBEBEB"/>
<path d="M402.995 620V583.636H415.957C418.786 583.636 421.129 584.151 422.988 585.181C424.846 586.211 426.237 587.62 427.161 589.407C428.084 591.183 428.545 593.183 428.545 595.408C428.545 597.646 428.078 599.658 427.143 601.445C426.219 603.221 424.823 604.629 422.952 605.671C421.094 606.701 418.756 607.216 415.939 607.216H407.026V602.564H415.442C417.229 602.564 418.679 602.256 419.792 601.641C420.905 601.013 421.721 600.161 422.242 599.084C422.763 598.007 423.023 596.781 423.023 595.408C423.023 594.035 422.763 592.816 422.242 591.751C421.721 590.685 420.899 589.851 419.774 589.247C418.661 588.643 417.194 588.342 415.371 588.342H408.482V620H402.995ZM442.244 620.604C440.516 620.604 438.953 620.284 437.556 619.645C436.16 618.994 435.053 618.053 434.236 616.822C433.431 615.591 433.029 614.081 433.029 612.294C433.029 610.755 433.325 609.489 433.917 608.494C434.508 607.5 435.307 606.713 436.314 606.133C437.32 605.553 438.444 605.115 439.687 604.819C440.93 604.523 442.197 604.298 443.487 604.144C445.12 603.955 446.446 603.801 447.464 603.683C448.482 603.552 449.222 603.345 449.684 603.061C450.145 602.777 450.376 602.315 450.376 601.676V601.552C450.376 600.001 449.938 598.8 449.062 597.947C448.198 597.095 446.908 596.669 445.191 596.669C443.404 596.669 441.995 597.066 440.966 597.859C439.948 598.64 439.243 599.51 438.853 600.469L433.863 599.332C434.455 597.675 435.319 596.338 436.456 595.32C437.604 594.29 438.924 593.544 440.415 593.082C441.907 592.609 443.475 592.372 445.12 592.372C446.209 592.372 447.364 592.502 448.583 592.763C449.814 593.011 450.962 593.473 452.027 594.148C453.105 594.822 453.986 595.787 454.673 597.042C455.359 598.285 455.703 599.901 455.703 601.889V620H450.518V616.271H450.305C449.962 616.958 449.447 617.633 448.76 618.295C448.074 618.958 447.192 619.509 446.115 619.947C445.038 620.385 443.747 620.604 442.244 620.604ZM443.398 616.342C444.866 616.342 446.121 616.052 447.162 615.472C448.216 614.892 449.015 614.135 449.559 613.2C450.116 612.253 450.394 611.241 450.394 610.163V606.648C450.204 606.837 449.837 607.015 449.293 607.18C448.76 607.334 448.151 607.47 447.464 607.589C446.778 607.695 446.109 607.796 445.458 607.891C444.807 607.973 444.262 608.045 443.824 608.104C442.794 608.234 441.853 608.453 441.001 608.761C440.161 609.068 439.486 609.512 438.977 610.092C438.48 610.661 438.231 611.418 438.231 612.365C438.231 613.679 438.717 614.673 439.687 615.348C440.658 616.011 441.895 616.342 443.398 616.342ZM483.211 599.386L478.399 600.238C478.198 599.622 477.878 599.036 477.44 598.48C477.014 597.924 476.434 597.468 475.7 597.113C474.966 596.758 474.049 596.58 472.948 596.58C471.445 596.58 470.19 596.918 469.184 597.592C468.178 598.255 467.675 599.113 467.675 600.167C467.675 601.078 468.012 601.812 468.687 602.369C469.361 602.925 470.45 603.381 471.954 603.736L476.286 604.73C478.796 605.31 480.666 606.204 481.897 607.411C483.128 608.619 483.743 610.187 483.743 612.116C483.743 613.75 483.27 615.206 482.323 616.484C481.388 617.751 480.08 618.745 478.399 619.467C476.73 620.189 474.795 620.55 472.593 620.55C469.539 620.55 467.047 619.899 465.118 618.597C463.188 617.283 462.005 615.419 461.567 613.004L466.698 612.223C467.018 613.561 467.675 614.573 468.669 615.259C469.663 615.934 470.959 616.271 472.557 616.271C474.297 616.271 475.688 615.91 476.73 615.188C477.772 614.454 478.292 613.561 478.292 612.507C478.292 611.655 477.973 610.939 477.334 610.359C476.706 609.779 475.742 609.341 474.439 609.045L469.823 608.033C467.278 607.453 465.396 606.529 464.177 605.263C462.969 603.996 462.366 602.392 462.366 600.451C462.366 598.841 462.815 597.433 463.715 596.225C464.615 595.018 465.858 594.077 467.444 593.402C469.03 592.715 470.847 592.372 472.895 592.372C475.842 592.372 478.162 593.011 479.855 594.29C481.548 595.556 482.666 597.255 483.211 599.386ZM510.017 599.386L505.206 600.238C505.004 599.622 504.685 599.036 504.247 598.48C503.821 597.924 503.241 597.468 502.507 597.113C501.773 596.758 500.855 596.58 499.755 596.58C498.251 596.58 496.997 596.918 495.99 597.592C494.984 598.255 494.481 599.113 494.481 600.167C494.481 601.078 494.819 601.812 495.493 602.369C496.168 602.925 497.257 603.381 498.76 603.736L503.093 604.73C505.602 605.31 507.472 606.204 508.703 607.411C509.935 608.619 510.55 610.187 510.55 612.116C510.55 613.75 510.077 615.206 509.13 616.484C508.194 617.751 506.886 618.745 505.206 619.467C503.537 620.189 501.601 620.55 499.4 620.55C496.346 620.55 493.854 619.899 491.924 618.597C489.995 617.283 488.811 615.419 488.373 613.004L493.505 612.223C493.824 613.561 494.481 614.573 495.475 615.259C496.47 615.934 497.766 616.271 499.364 616.271C501.104 616.271 502.495 615.91 503.537 615.188C504.578 614.454 505.099 613.561 505.099 612.507C505.099 611.655 504.779 610.939 504.14 610.359C503.513 609.779 502.548 609.341 501.246 609.045L496.63 608.033C494.085 607.453 492.203 606.529 490.983 605.263C489.776 603.996 489.172 602.392 489.172 600.451C489.172 598.841 489.622 597.433 490.522 596.225C491.421 595.018 492.664 594.077 494.25 593.402C495.837 592.715 497.654 592.372 499.701 592.372C502.649 592.372 504.969 593.011 506.662 594.29C508.354 595.556 509.473 597.255 510.017 599.386ZM522.3 620L514.274 592.727H519.761L525.105 612.756H525.372L530.734 592.727H536.22L541.547 612.667H541.813L547.122 592.727H552.609L544.601 620H539.186L533.646 600.309H533.237L527.698 620H522.3ZM568.305 620.55C565.748 620.55 563.517 619.964 561.611 618.793C559.705 617.621 558.226 615.981 557.172 613.874C556.119 611.767 555.592 609.305 555.592 606.488C555.592 603.659 556.119 601.185 557.172 599.066C558.226 596.947 559.705 595.302 561.611 594.13C563.517 592.958 565.748 592.372 568.305 592.372C570.862 592.372 573.093 592.958 574.999 594.13C576.905 595.302 578.384 596.947 579.438 599.066C580.491 601.185 581.018 603.659 581.018 606.488C581.018 609.305 580.491 611.767 579.438 613.874C578.384 615.981 576.905 617.621 574.999 618.793C573.093 619.964 570.862 620.55 568.305 620.55ZM568.323 616.094C569.98 616.094 571.353 615.656 572.442 614.78C573.531 613.904 574.336 612.738 574.857 611.282C575.389 609.826 575.656 608.222 575.656 606.47C575.656 604.73 575.389 603.132 574.857 601.676C574.336 600.208 573.531 599.031 572.442 598.143C571.353 597.255 569.98 596.811 568.323 596.811C566.654 596.811 565.269 597.255 564.168 598.143C563.079 599.031 562.268 600.208 561.735 601.676C561.214 603.132 560.954 604.73 560.954 606.47C560.954 608.222 561.214 609.826 561.735 611.282C562.268 612.738 563.079 613.904 564.168 614.78C565.269 615.656 566.654 616.094 568.323 616.094ZM586.944 620V592.727H592.075V597.06H592.359C592.857 595.592 593.732 594.438 594.987 593.597C596.254 592.745 597.686 592.319 599.284 592.319C599.616 592.319 600.006 592.331 600.456 592.354C600.918 592.378 601.279 592.408 601.539 592.443V597.521C601.326 597.462 600.947 597.397 600.403 597.326C599.858 597.243 599.314 597.202 598.769 597.202C597.514 597.202 596.396 597.468 595.413 598.001C594.443 598.522 593.673 599.25 593.105 600.185C592.537 601.108 592.253 602.161 592.253 603.345V620H586.944ZM615.366 620.533C613.165 620.533 611.2 619.97 609.471 618.846C607.755 617.71 606.406 616.094 605.423 613.999C604.452 611.892 603.967 609.364 603.967 606.417C603.967 603.469 604.458 600.948 605.441 598.853C606.435 596.758 607.796 595.154 609.525 594.041C611.253 592.929 613.212 592.372 615.402 592.372C617.095 592.372 618.456 592.656 619.486 593.224C620.527 593.781 621.332 594.432 621.9 595.178C622.48 595.923 622.93 596.58 623.25 597.148H623.569V583.636H628.878V620H623.694V615.756H623.25C622.93 616.336 622.469 616.999 621.865 617.745C621.273 618.491 620.456 619.142 619.415 619.698C618.373 620.254 617.023 620.533 615.366 620.533ZM616.538 616.005C618.065 616.005 619.355 615.603 620.409 614.798C621.474 613.981 622.279 612.85 622.824 611.406C623.38 609.962 623.658 608.281 623.658 606.364C623.658 604.47 623.386 602.812 622.841 601.392C622.297 599.972 621.498 598.865 620.444 598.072C619.391 597.279 618.089 596.882 616.538 596.882C614.94 596.882 613.608 597.296 612.543 598.125C611.478 598.954 610.673 600.084 610.128 601.516C609.596 602.949 609.329 604.564 609.329 606.364C609.329 608.187 609.602 609.826 610.146 611.282C610.691 612.738 611.496 613.892 612.561 614.744C613.638 615.585 614.964 616.005 616.538 616.005Z" fill="black"/>
<rect x="324.5" y="341.5" width="863" height="136" rx="48.5" fill="#EBEBEB" stroke="black" stroke-width="3"/>
<rect x="378" y="310" width="294" height="59" fill="#EBEBEB"/>
<path d="M414.509 322.636H421.097V346.393C421.097 348.998 420.481 351.288 419.25 353.265C418.031 355.242 416.314 356.786 414.101 357.899C411.887 359 409.301 359.55 406.342 359.55C403.371 359.55 400.778 359 398.565 357.899C396.351 356.786 394.635 355.242 393.415 353.265C392.196 351.288 391.587 348.998 391.587 346.393V322.636H398.174V345.843C398.174 347.358 398.505 348.708 399.168 349.891C399.843 351.075 400.79 352.004 402.009 352.679C403.228 353.342 404.673 353.673 406.342 353.673C408.011 353.673 409.455 353.342 410.674 352.679C411.905 352.004 412.852 351.075 413.515 349.891C414.178 348.708 414.509 347.358 414.509 345.843V322.636ZM449.528 338.936L443.669 339.575C443.503 338.983 443.213 338.427 442.798 337.906C442.396 337.385 441.852 336.965 441.165 336.646C440.478 336.326 439.638 336.166 438.644 336.166C437.306 336.166 436.182 336.456 435.27 337.036C434.37 337.616 433.927 338.368 433.938 339.291C433.927 340.084 434.217 340.729 434.808 341.227C435.412 341.724 436.406 342.132 437.791 342.452L442.443 343.446C445.024 344.002 446.941 344.884 448.196 346.092C449.463 347.299 450.102 348.879 450.114 350.832C450.102 352.549 449.599 354.064 448.605 355.378C447.622 356.68 446.255 357.698 444.503 358.432C442.751 359.166 440.739 359.533 438.466 359.533C435.128 359.533 432.441 358.834 430.405 357.438C428.369 356.029 427.156 354.07 426.765 351.56L433.033 350.957C433.317 352.188 433.921 353.117 434.844 353.744C435.767 354.372 436.969 354.685 438.448 354.685C439.975 354.685 441.2 354.372 442.124 353.744C443.059 353.117 443.526 352.342 443.526 351.418C443.526 350.637 443.225 349.992 442.621 349.483C442.029 348.974 441.106 348.583 439.851 348.311L435.199 347.335C432.583 346.79 430.648 345.873 429.393 344.582C428.138 343.28 427.517 341.635 427.529 339.646C427.517 337.965 427.972 336.509 428.896 335.278C429.831 334.036 431.127 333.077 432.784 332.402C434.453 331.715 436.377 331.372 438.555 331.372C441.751 331.372 444.266 332.053 446.101 333.414C447.948 334.775 449.09 336.616 449.528 338.936ZM467.488 359.533C464.753 359.533 462.392 358.964 460.403 357.828C458.426 356.68 456.905 355.058 455.84 352.963C454.775 350.856 454.242 348.376 454.242 345.523C454.242 342.718 454.775 340.256 455.84 338.137C456.917 336.006 458.421 334.349 460.35 333.165C462.279 331.97 464.546 331.372 467.15 331.372C468.831 331.372 470.417 331.644 471.909 332.189C473.412 332.722 474.738 333.55 475.886 334.675C477.046 335.799 477.958 337.232 478.621 338.972C479.283 340.7 479.615 342.759 479.615 345.151V347.121H457.26V342.789H473.454C473.442 341.558 473.175 340.463 472.655 339.504C472.134 338.534 471.406 337.77 470.471 337.214C469.547 336.657 468.47 336.379 467.239 336.379C465.925 336.379 464.771 336.699 463.777 337.338C462.782 337.965 462.007 338.794 461.451 339.824C460.906 340.842 460.628 341.96 460.616 343.18V346.962C460.616 348.548 460.906 349.909 461.486 351.045C462.066 352.17 462.877 353.034 463.919 353.638C464.961 354.23 466.18 354.526 467.577 354.526C468.512 354.526 469.358 354.395 470.116 354.135C470.873 353.863 471.53 353.466 472.086 352.945C472.643 352.424 473.063 351.779 473.347 351.01L479.349 351.685C478.97 353.271 478.248 354.656 477.182 355.839C476.129 357.011 474.779 357.923 473.134 358.574C471.489 359.213 469.607 359.533 467.488 359.533ZM485.053 359V331.727H491.285V336.273H491.569C492.066 334.698 492.918 333.485 494.126 332.633C495.345 331.769 496.736 331.337 498.298 331.337C498.653 331.337 499.05 331.354 499.488 331.39C499.938 331.414 500.311 331.455 500.607 331.514V337.427C500.334 337.332 499.902 337.249 499.31 337.178C498.73 337.095 498.168 337.054 497.624 337.054C496.452 337.054 495.398 337.308 494.463 337.817C493.54 338.315 492.812 339.007 492.279 339.895C491.746 340.783 491.48 341.807 491.48 342.967V359H485.053ZM547.446 322.636V359H541.587L524.452 334.231H524.151V359H517.563V322.636H523.458L540.575 347.423H540.894V322.636H547.446ZM562.188 359.55C560.459 359.55 558.903 359.243 557.518 358.627C556.145 358 555.056 357.076 554.251 355.857C553.458 354.638 553.061 353.135 553.061 351.347C553.061 349.808 553.345 348.536 553.914 347.53C554.482 346.524 555.257 345.719 556.24 345.115C557.222 344.511 558.329 344.056 559.56 343.748C560.803 343.428 562.087 343.197 563.413 343.055C565.011 342.89 566.307 342.742 567.301 342.612C568.296 342.469 569.018 342.256 569.468 341.972C569.929 341.676 570.16 341.221 570.16 340.605V340.499C570.16 339.161 569.763 338.125 568.97 337.391C568.177 336.657 567.035 336.29 565.544 336.29C563.969 336.29 562.72 336.634 561.797 337.32C560.886 338.007 560.27 338.818 559.95 339.753L553.949 338.901C554.423 337.243 555.204 335.858 556.293 334.746C557.382 333.621 558.713 332.781 560.288 332.224C561.862 331.656 563.602 331.372 565.508 331.372C566.822 331.372 568.13 331.526 569.432 331.834C570.734 332.142 571.924 332.651 573.001 333.361C574.078 334.059 574.942 335.012 575.593 336.219C576.256 337.427 576.588 338.936 576.588 340.747V359H570.409V355.254H570.195C569.805 356.011 569.254 356.721 568.544 357.384C567.846 358.035 566.964 358.562 565.899 358.964C564.845 359.355 563.608 359.55 562.188 359.55ZM563.857 354.827C565.147 354.827 566.266 354.573 567.213 354.064C568.16 353.543 568.887 352.857 569.396 352.004C569.917 351.152 570.178 350.223 570.178 349.217V346.003C569.977 346.169 569.633 346.322 569.148 346.464C568.674 346.607 568.142 346.731 567.55 346.837C566.958 346.944 566.372 347.039 565.792 347.121C565.212 347.204 564.709 347.275 564.283 347.335C563.324 347.465 562.466 347.678 561.708 347.974C560.951 348.27 560.353 348.684 559.915 349.217C559.477 349.737 559.258 350.412 559.258 351.241C559.258 352.424 559.69 353.318 560.554 353.922C561.418 354.526 562.519 354.827 563.857 354.827ZM583.051 359V331.727H589.194V336.362H589.514C590.082 334.799 591.023 333.58 592.337 332.704C593.651 331.816 595.219 331.372 597.042 331.372C598.889 331.372 600.445 331.822 601.712 332.722C602.99 333.609 603.89 334.823 604.411 336.362H604.695C605.298 334.846 606.316 333.639 607.749 332.739C609.193 331.828 610.903 331.372 612.88 331.372C615.39 331.372 617.437 332.165 619.024 333.751C620.61 335.338 621.403 337.652 621.403 340.694V359H614.958V341.688C614.958 339.996 614.508 338.759 613.608 337.977C612.709 337.184 611.608 336.788 610.306 336.788C608.755 336.788 607.542 337.273 606.666 338.244C605.802 339.202 605.369 340.451 605.369 341.99V359H599.066V341.422C599.066 340.013 598.64 338.889 597.788 338.048C596.947 337.208 595.847 336.788 594.485 336.788C593.562 336.788 592.722 337.024 591.964 337.498C591.206 337.96 590.603 338.616 590.153 339.469C589.703 340.309 589.478 341.292 589.478 342.416V359H583.051ZM639.998 359.533C637.263 359.533 634.902 358.964 632.913 357.828C630.936 356.68 629.415 355.058 628.35 352.963C627.284 350.856 626.752 348.376 626.752 345.523C626.752 342.718 627.284 340.256 628.35 338.137C629.427 336.006 630.93 334.349 632.86 333.165C634.789 331.97 637.056 331.372 639.66 331.372C641.341 331.372 642.927 331.644 644.419 332.189C645.922 332.722 647.248 333.55 648.396 334.675C649.556 335.799 650.467 337.232 651.13 338.972C651.793 340.7 652.125 342.759 652.125 345.151V347.121H629.77V342.789H645.963C645.952 341.558 645.685 340.463 645.164 339.504C644.644 338.534 643.916 337.77 642.98 337.214C642.057 336.657 640.98 336.379 639.749 336.379C638.435 336.379 637.281 336.699 636.287 337.338C635.292 337.965 634.517 338.794 633.961 339.824C633.416 340.842 633.138 341.96 633.126 343.18V346.962C633.126 348.548 633.416 349.909 633.996 351.045C634.576 352.17 635.387 353.034 636.429 353.638C637.47 354.23 638.69 354.526 640.086 354.526C641.021 354.526 641.868 354.395 642.625 354.135C643.383 353.863 644.04 353.466 644.596 352.945C645.153 352.424 645.573 351.779 645.857 351.01L651.858 351.685C651.48 353.271 650.757 354.656 649.692 355.839C648.639 357.011 647.289 357.923 645.644 358.574C643.998 359.213 642.116 359.533 639.998 359.533Z" fill="black"/>
<path d="M580.147 839V810.636H599.508V816.204H587.002V822.021H598.276V827.602H587.002V839H580.147ZM611.329 839.402C609.094 839.402 607.174 838.945 605.567 838.031C603.97 837.107 602.737 835.824 601.869 834.18C601.011 832.528 600.581 830.612 600.581 828.433C600.581 826.245 601.011 824.329 601.869 822.685C602.737 821.033 603.97 819.749 605.567 818.835C607.174 817.912 609.094 817.45 611.329 817.45C613.563 817.45 615.479 817.912 617.076 818.835C618.683 819.749 619.915 821.033 620.774 822.685C621.642 824.329 622.076 826.245 622.076 828.433C622.076 830.612 621.642 832.528 620.774 834.18C619.915 835.824 618.683 837.107 617.076 838.031C615.479 838.945 613.563 839.402 611.329 839.402ZM611.37 834.291C612.183 834.291 612.871 834.042 613.434 833.543C613.997 833.045 614.426 832.352 614.722 831.466C615.026 830.58 615.179 829.555 615.179 828.391C615.179 827.21 615.026 826.175 614.722 825.289C614.426 824.403 613.997 823.71 613.434 823.212C612.871 822.713 612.183 822.464 611.37 822.464C610.53 822.464 609.819 822.713 609.237 823.212C608.665 823.71 608.226 824.403 607.922 825.289C607.626 826.175 607.479 827.21 607.479 828.391C607.479 829.555 607.626 830.58 607.922 831.466C608.226 832.352 608.665 833.045 609.237 833.543C609.819 834.042 610.53 834.291 611.37 834.291ZM625.545 839V817.727H632.124V821.605H632.345C632.733 820.202 633.365 819.158 634.243 818.475C635.12 817.783 636.14 817.436 637.303 817.436C637.617 817.436 637.94 817.46 638.273 817.506C638.605 817.543 638.914 817.603 639.201 817.686V823.572C638.877 823.461 638.453 823.373 637.926 823.309C637.409 823.244 636.948 823.212 636.542 823.212C635.738 823.212 635.013 823.392 634.367 823.752C633.73 824.103 633.227 824.597 632.858 825.234C632.498 825.862 632.317 826.6 632.317 827.45V839H625.545ZM650.772 847.42C648.75 847.42 647.019 847.139 645.578 846.576C644.138 846.012 643.007 845.241 642.185 844.263C641.363 843.284 640.869 842.176 640.703 840.939L647.116 840.579C647.236 841.013 647.457 841.391 647.78 841.714C648.113 842.038 648.542 842.287 649.068 842.462C649.604 842.638 650.232 842.725 650.952 842.725C652.088 842.725 653.025 842.449 653.763 841.895C654.511 841.35 654.885 840.394 654.885 839.028V835.288H654.65C654.382 835.944 653.976 836.53 653.431 837.047C652.886 837.564 652.208 837.971 651.395 838.266C650.592 838.561 649.669 838.709 648.625 838.709C647.074 838.709 645.652 838.349 644.36 837.629C643.076 836.9 642.047 835.773 641.271 834.25C640.505 832.717 640.122 830.746 640.122 828.336C640.122 825.852 640.519 823.807 641.313 822.201C642.107 820.585 643.145 819.389 644.429 818.614C645.721 817.838 647.111 817.45 648.597 817.45C649.715 817.45 650.67 817.644 651.464 818.032C652.268 818.411 652.928 818.9 653.445 819.5C653.962 820.1 654.354 820.723 654.622 821.37H654.816V817.727H661.561V839.083C661.561 840.884 661.108 842.402 660.203 843.64C659.298 844.877 658.034 845.814 656.409 846.451C654.784 847.097 652.905 847.42 650.772 847.42ZM650.98 833.779C651.801 833.779 652.503 833.562 653.085 833.128C653.666 832.694 654.114 832.071 654.428 831.258C654.742 830.446 654.899 829.472 654.899 828.336C654.899 827.182 654.742 826.189 654.428 825.358C654.123 824.518 653.676 823.872 653.085 823.419C652.503 822.967 651.801 822.741 650.98 822.741C650.139 822.741 649.428 822.972 648.847 823.433C648.265 823.895 647.822 824.546 647.517 825.386C647.222 826.217 647.074 827.2 647.074 828.336C647.074 829.472 647.226 830.446 647.531 831.258C647.836 832.071 648.274 832.694 648.847 833.128C649.428 833.562 650.139 833.779 650.98 833.779ZM675.808 839.402C673.574 839.402 671.653 838.945 670.047 838.031C668.449 837.107 667.217 835.824 666.349 834.18C665.49 832.528 665.061 830.612 665.061 828.433C665.061 826.245 665.49 824.329 666.349 822.685C667.217 821.033 668.449 819.749 670.047 818.835C671.653 817.912 673.574 817.45 675.808 817.45C678.043 817.45 679.958 817.912 681.556 818.835C683.162 819.749 684.395 821.033 685.253 822.685C686.121 824.329 686.555 826.245 686.555 828.433C686.555 830.612 686.121 832.528 685.253 834.18C684.395 835.824 683.162 837.107 681.556 838.031C679.958 838.945 678.043 839.402 675.808 839.402ZM675.85 834.291C676.662 834.291 677.35 834.042 677.913 833.543C678.476 833.045 678.906 832.352 679.201 831.466C679.506 830.58 679.658 829.555 679.658 828.391C679.658 827.21 679.506 826.175 679.201 825.289C678.906 824.403 678.476 823.71 677.913 823.212C677.35 822.713 676.662 822.464 675.85 822.464C675.009 822.464 674.299 822.713 673.717 823.212C673.144 823.71 672.706 824.403 672.401 825.289C672.106 826.175 671.958 827.21 671.958 828.391C671.958 829.555 672.106 830.58 672.401 831.466C672.706 832.352 673.144 833.045 673.717 833.543C674.299 834.042 675.009 834.291 675.85 834.291ZM702.032 817.727V822.713H688.612V817.727H702.032ZM691.423 812.631H698.196V832.311C698.196 832.726 698.26 833.063 698.39 833.322C698.528 833.571 698.727 833.751 698.985 833.862C699.244 833.963 699.553 834.014 699.913 834.014C700.172 834.014 700.444 833.991 700.73 833.945C701.026 833.89 701.247 833.843 701.395 833.806L702.42 838.695C702.097 838.788 701.64 838.903 701.049 839.042C700.467 839.18 699.77 839.268 698.957 839.305C697.369 839.379 696.008 839.194 694.872 838.751C693.745 838.298 692.882 837.597 692.282 836.646C691.691 835.695 691.405 834.499 691.423 833.059V812.631ZM722.245 839V810.636H733.962C736.085 810.636 737.918 811.052 739.46 811.883C741.011 812.705 742.207 813.854 743.047 815.331C743.887 816.799 744.307 818.507 744.307 820.456C744.307 822.413 743.878 824.126 743.019 825.594C742.17 827.053 740.956 828.184 739.377 828.987C737.798 829.79 735.924 830.192 733.754 830.192H726.525V824.79H732.48C733.514 824.79 734.377 824.61 735.07 824.25C735.772 823.89 736.302 823.387 736.663 822.741C737.023 822.085 737.203 821.324 737.203 820.456C737.203 819.578 737.023 818.821 736.663 818.184C736.302 817.538 735.772 817.039 735.07 816.689C734.368 816.338 733.505 816.162 732.48 816.162H729.101V839H722.245ZM752.922 839.36C751.565 839.36 750.36 839.134 749.307 838.681C748.264 838.22 747.437 837.527 746.828 836.604C746.228 835.672 745.928 834.504 745.928 833.1C745.928 831.918 746.136 830.921 746.551 830.109C746.967 829.296 747.539 828.636 748.268 828.128C748.998 827.62 749.838 827.237 750.789 826.979C751.74 826.711 752.756 826.531 753.836 826.439C755.045 826.328 756.019 826.212 756.758 826.092C757.497 825.963 758.032 825.783 758.365 825.552C758.706 825.312 758.877 824.975 758.877 824.541V824.472C758.877 823.761 758.632 823.212 758.143 822.824C757.654 822.436 756.994 822.242 756.163 822.242C755.267 822.242 754.547 822.436 754.002 822.824C753.457 823.212 753.111 823.747 752.963 824.43L746.717 824.209C746.902 822.916 747.377 821.762 748.144 820.746C748.919 819.722 749.981 818.918 751.329 818.337C752.686 817.746 754.316 817.45 756.218 817.45C757.575 817.45 758.826 817.612 759.971 817.935C761.116 818.249 762.113 818.711 762.963 819.32C763.812 819.92 764.468 820.659 764.929 821.536C765.4 822.413 765.636 823.415 765.636 824.541V839H759.265V836.036H759.099C758.72 836.756 758.235 837.366 757.644 837.864C757.063 838.363 756.375 838.737 755.581 838.986C754.796 839.235 753.91 839.36 752.922 839.36ZM755.013 834.928C755.742 834.928 756.398 834.781 756.98 834.485C757.571 834.19 758.041 833.783 758.392 833.266C758.743 832.74 758.919 832.131 758.919 831.438V829.416C758.725 829.518 758.489 829.61 758.212 829.693C757.945 829.776 757.649 829.855 757.326 829.929C757.003 830.002 756.67 830.067 756.329 830.123C755.987 830.178 755.659 830.229 755.345 830.275C754.708 830.376 754.164 830.533 753.711 830.746C753.268 830.958 752.926 831.235 752.686 831.577C752.456 831.909 752.34 832.306 752.34 832.768C752.34 833.469 752.589 834.005 753.088 834.374C753.596 834.744 754.237 834.928 755.013 834.928ZM788.349 824.223L782.13 824.389C782.066 823.946 781.89 823.553 781.604 823.212C781.318 822.861 780.944 822.588 780.482 822.395C780.03 822.191 779.503 822.09 778.903 822.09C778.119 822.09 777.449 822.247 776.895 822.561C776.35 822.875 776.083 823.299 776.092 823.835C776.083 824.25 776.249 824.61 776.59 824.915C776.941 825.22 777.565 825.464 778.46 825.649L782.56 826.425C784.683 826.831 786.262 827.505 787.296 828.447C788.339 829.388 788.866 830.635 788.875 832.186C788.866 833.645 788.432 834.914 787.573 835.995C786.724 837.075 785.56 837.915 784.083 838.515C782.606 839.106 780.916 839.402 779.014 839.402C775.976 839.402 773.581 838.778 771.826 837.532C770.081 836.276 769.084 834.596 768.835 832.491L775.524 832.325C775.672 833.1 776.055 833.691 776.674 834.097C777.292 834.504 778.082 834.707 779.042 834.707C779.91 834.707 780.616 834.545 781.161 834.222C781.706 833.899 781.983 833.469 781.992 832.934C781.983 832.454 781.77 832.071 781.355 831.784C780.939 831.489 780.288 831.258 779.402 831.092L775.69 830.386C773.557 829.998 771.969 829.282 770.926 828.239C769.883 827.186 769.366 825.848 769.375 824.223C769.366 822.801 769.744 821.587 770.511 820.58C771.277 819.565 772.366 818.789 773.779 818.254C775.192 817.718 776.858 817.45 778.779 817.45C781.659 817.45 783.931 818.055 785.593 819.265C787.255 820.465 788.173 822.118 788.349 824.223ZM810.781 824.223L804.563 824.389C804.498 823.946 804.323 823.553 804.037 823.212C803.75 822.861 803.376 822.588 802.915 822.395C802.462 822.191 801.936 822.09 801.336 822.09C800.551 822.09 799.882 822.247 799.328 822.561C798.783 822.875 798.515 823.299 798.525 823.835C798.515 824.25 798.681 824.61 799.023 824.915C799.374 825.22 799.997 825.464 800.893 825.649L804.992 826.425C807.116 826.831 808.695 827.505 809.729 828.447C810.772 829.388 811.298 830.635 811.308 832.186C811.298 833.645 810.864 834.914 810.006 835.995C809.156 837.075 807.993 837.915 806.516 838.515C805.038 839.106 803.349 839.402 801.447 839.402C798.409 839.402 796.013 838.778 794.259 837.532C792.514 836.276 791.517 834.596 791.267 832.491L797.957 832.325C798.104 833.1 798.488 833.691 799.106 834.097C799.725 834.504 800.514 834.707 801.474 834.707C802.342 834.707 803.049 834.545 803.593 834.222C804.138 833.899 804.415 833.469 804.424 832.934C804.415 832.454 804.203 832.071 803.787 831.784C803.372 831.489 802.721 831.258 801.835 831.092L798.123 830.386C795.99 829.998 794.402 829.282 793.359 828.239C792.315 827.186 791.798 825.848 791.808 824.223C791.798 822.801 792.177 821.587 792.943 820.58C793.71 819.565 794.799 818.789 796.212 818.254C797.624 817.718 799.291 817.45 801.211 817.45C804.092 817.45 806.363 818.055 808.025 819.265C809.687 820.465 810.606 822.118 810.781 824.223ZM818.617 839L813.077 817.727H819.877L822.744 831.355H822.924L825.998 817.727H832.632L835.79 831.258H835.97L838.754 817.727H845.554L840 839H832.757L829.433 826.605H829.198L825.874 839H818.617ZM857.745 839.402C855.51 839.402 853.59 838.945 851.983 838.031C850.386 837.107 849.153 835.824 848.286 834.18C847.427 832.528 846.998 830.612 846.998 828.433C846.998 826.245 847.427 824.329 848.286 822.685C849.153 821.033 850.386 819.749 851.983 818.835C853.59 817.912 855.51 817.45 857.745 817.45C859.979 817.45 861.895 817.912 863.492 818.835C865.099 819.749 866.331 821.033 867.19 822.685C868.058 824.329 868.492 826.245 868.492 828.433C868.492 830.612 868.058 832.528 867.19 834.18C866.331 835.824 865.099 837.107 863.492 838.031C861.895 838.945 859.979 839.402 857.745 839.402ZM857.786 834.291C858.599 834.291 859.287 834.042 859.85 833.543C860.413 833.045 860.842 832.352 861.138 831.466C861.442 830.58 861.595 829.555 861.595 828.391C861.595 827.21 861.442 826.175 861.138 825.289C860.842 824.403 860.413 823.71 859.85 823.212C859.287 822.713 858.599 822.464 857.786 822.464C856.946 822.464 856.235 822.713 855.653 823.212C855.081 823.71 854.642 824.403 854.338 825.289C854.042 826.175 853.895 827.21 853.895 828.391C853.895 829.555 854.042 830.58 854.338 831.466C854.642 832.352 855.081 833.045 855.653 833.543C856.235 834.042 856.946 834.291 857.786 834.291ZM871.961 839V817.727H878.54V821.605H878.761C879.149 820.202 879.781 819.158 880.659 818.475C881.536 817.783 882.556 817.436 883.719 817.436C884.033 817.436 884.356 817.46 884.689 817.506C885.021 817.543 885.33 817.603 885.617 817.686V823.572C885.294 823.461 884.869 823.373 884.343 823.309C883.825 823.244 883.364 823.212 882.958 823.212C882.154 823.212 881.43 823.392 880.783 823.752C880.146 824.103 879.643 824.597 879.274 825.234C878.914 825.862 878.733 826.6 878.733 827.45V839H871.961ZM895.041 839.305C893.472 839.305 892.045 838.898 890.762 838.086C889.478 837.273 888.453 836.055 887.687 834.43C886.921 832.805 886.538 830.787 886.538 828.377C886.538 825.875 886.935 823.816 887.729 822.201C888.523 820.585 889.561 819.389 890.845 818.614C892.137 817.838 893.527 817.45 895.013 817.45C896.131 817.45 897.086 817.644 897.88 818.032C898.674 818.411 899.33 818.9 899.847 819.5C900.364 820.1 900.756 820.723 901.024 821.37H901.163V810.636H907.935V839H901.232V835.551H901.024C900.738 836.207 900.332 836.821 899.805 837.393C899.279 837.966 898.619 838.428 897.825 838.778C897.04 839.129 896.112 839.305 895.041 839.305ZM897.396 834.028C898.217 834.028 898.919 833.797 899.501 833.336C900.082 832.865 900.53 832.205 900.844 831.355C901.158 830.506 901.315 829.509 901.315 828.364C901.315 827.2 901.158 826.199 900.844 825.358C900.539 824.518 900.092 823.872 899.501 823.419C898.919 822.967 898.217 822.741 897.396 822.741C896.555 822.741 895.844 822.972 895.263 823.433C894.681 823.895 894.238 824.546 893.933 825.386C893.638 826.226 893.49 827.219 893.49 828.364C893.49 829.509 893.642 830.506 893.947 831.355C894.252 832.205 894.69 832.865 895.263 833.336C895.844 833.797 896.555 834.028 897.396 834.028ZM917.55 830.316V829.749C917.55 828.179 917.679 826.928 917.938 825.995C918.206 825.063 918.593 824.315 919.101 823.752C919.609 823.179 920.228 822.658 920.957 822.187C921.539 821.817 922.056 821.444 922.508 821.065C922.97 820.677 923.334 820.262 923.602 819.819C923.87 819.375 924.004 818.872 924.004 818.309C924.004 817.764 923.875 817.284 923.616 816.869C923.358 816.453 923.002 816.135 922.55 815.913C922.106 815.682 921.612 815.567 921.068 815.567C920.523 815.567 920.011 815.691 919.53 815.941C919.06 816.19 918.672 816.545 918.367 817.007C918.072 817.46 917.919 818.009 917.91 818.655H911.539C911.567 816.716 912.015 815.128 912.883 813.891C913.76 812.654 914.919 811.74 916.359 811.149C917.799 810.549 919.387 810.249 921.123 810.249C923.025 810.249 924.715 810.544 926.192 811.135C927.679 811.726 928.847 812.598 929.696 813.752C930.545 814.907 930.97 816.319 930.97 817.99C930.97 819.089 930.785 820.059 930.416 820.899C930.047 821.739 929.53 822.482 928.865 823.129C928.209 823.766 927.438 824.347 926.552 824.874C925.86 825.28 925.283 825.705 924.821 826.148C924.369 826.591 924.027 827.099 923.796 827.671C923.565 828.234 923.45 828.927 923.45 829.749V830.316H917.55ZM920.611 839.402C919.614 839.402 918.759 839.051 918.049 838.349C917.347 837.647 917.001 836.798 917.01 835.801C917.001 834.822 917.347 833.987 918.049 833.294C918.759 832.592 919.614 832.241 920.611 832.241C921.562 832.241 922.397 832.592 923.117 833.294C923.838 833.987 924.202 834.822 924.212 835.801C924.202 836.466 924.027 837.07 923.685 837.615C923.353 838.16 922.914 838.594 922.37 838.917C921.834 839.24 921.248 839.402 920.611 839.402Z" fill="black"/>
<g filter="url(#filter1_d_1_102)">
<rect x="532" y="889" width="458" height="116" rx="50" fill="#0D0169"/>
</g>
<path d="M699.408 940.538C699.289 939.236 698.763 938.224 697.827 937.502C696.904 936.768 695.584 936.401 693.868 936.401C692.732 936.401 691.785 936.549 691.027 936.845C690.269 937.141 689.701 937.549 689.322 938.07C688.944 938.579 688.748 939.165 688.737 939.828C688.713 940.373 688.819 940.852 689.056 941.266C689.305 941.681 689.66 942.048 690.121 942.367C690.595 942.675 691.163 942.947 691.826 943.184C692.489 943.421 693.235 943.628 694.063 943.805L697.188 944.516C698.987 944.906 700.574 945.427 701.947 946.078C703.332 946.729 704.492 947.504 705.427 948.404C706.374 949.304 707.09 950.339 707.575 951.511C708.061 952.683 708.309 953.997 708.321 955.453C708.309 957.75 707.729 959.72 706.581 961.366C705.433 963.011 703.781 964.272 701.627 965.148C699.485 966.024 696.898 966.462 693.868 966.462C690.826 966.462 688.174 966.006 685.913 965.094C683.652 964.183 681.895 962.798 680.64 960.94C679.385 959.081 678.74 956.732 678.705 953.891H687.121C687.192 955.062 687.505 956.039 688.062 956.82C688.618 957.602 689.382 958.193 690.352 958.596C691.335 958.998 692.471 959.2 693.761 959.2C694.945 959.2 695.951 959.04 696.78 958.72C697.62 958.401 698.265 957.957 698.715 957.388C699.165 956.82 699.396 956.169 699.408 955.435C699.396 954.749 699.183 954.163 698.768 953.678C698.354 953.18 697.715 952.754 696.851 952.399C695.999 952.032 694.91 951.695 693.584 951.387L689.784 950.499C686.635 949.777 684.156 948.611 682.344 947.001C680.533 945.38 679.634 943.19 679.646 940.432C679.634 938.183 680.237 936.212 681.457 934.519C682.676 932.826 684.363 931.507 686.517 930.56C688.671 929.613 691.128 929.139 693.886 929.139C696.703 929.139 699.147 929.619 701.219 930.577C703.302 931.524 704.918 932.856 706.066 934.572C707.214 936.289 707.8 938.277 707.824 940.538H699.408ZM712.76 966V938.727H721.442V966H712.76ZM717.11 935.549C715.891 935.549 714.843 935.147 713.967 934.342C713.091 933.525 712.653 932.542 712.653 931.394C712.653 930.258 713.091 929.287 713.967 928.482C714.843 927.665 715.891 927.257 717.11 927.257C718.341 927.257 719.389 927.665 720.253 928.482C721.129 929.287 721.567 930.258 721.567 931.394C721.567 932.542 721.129 933.525 720.253 934.342C719.389 935.147 718.341 935.549 717.11 935.549ZM739.682 976.795C737.09 976.795 734.87 976.434 733.024 975.712C731.177 974.99 729.727 974.002 728.673 972.747C727.62 971.492 726.987 970.072 726.774 968.486L734.994 968.024C735.148 968.58 735.432 969.066 735.847 969.48C736.273 969.894 736.823 970.214 737.498 970.439C738.185 970.664 738.99 970.776 739.913 970.776C741.369 970.776 742.57 970.421 743.517 969.711C744.476 969.013 744.955 967.787 744.955 966.036V961.241H744.654C744.31 962.082 743.789 962.834 743.091 963.496C742.393 964.159 741.523 964.68 740.481 965.059C739.451 965.438 738.267 965.627 736.93 965.627C734.941 965.627 733.118 965.165 731.461 964.242C729.816 963.307 728.496 961.863 727.502 959.91C726.519 957.945 726.028 955.418 726.028 952.328C726.028 949.144 726.537 946.522 727.555 944.462C728.573 942.391 729.905 940.858 731.55 939.864C733.207 938.869 734.989 938.372 736.894 938.372C738.327 938.372 739.552 938.621 740.57 939.118C741.6 939.603 742.446 940.231 743.109 941C743.772 941.769 744.275 942.568 744.618 943.397H744.867V938.727H753.514V966.107C753.514 968.415 752.934 970.362 751.774 971.948C750.614 973.534 748.992 974.736 746.909 975.553C744.825 976.381 742.416 976.795 739.682 976.795ZM739.948 959.306C741.002 959.306 741.901 959.028 742.647 958.472C743.393 957.915 743.967 957.116 744.369 956.075C744.772 955.033 744.973 953.784 744.973 952.328C744.973 950.848 744.772 949.576 744.369 948.511C743.979 947.433 743.405 946.605 742.647 946.025C741.901 945.445 741.002 945.155 739.948 945.155C738.871 945.155 737.96 945.451 737.214 946.043C736.468 946.634 735.9 947.469 735.509 948.546C735.131 949.612 734.941 950.872 734.941 952.328C734.941 953.784 735.137 955.033 735.527 956.075C735.918 957.116 736.48 957.915 737.214 958.472C737.96 959.028 738.871 959.306 739.948 959.306ZM767.732 950.446V966H759.049V938.727H767.305V943.734H767.607C768.211 942.065 769.241 940.757 770.697 939.81C772.153 938.852 773.887 938.372 775.899 938.372C777.817 938.372 779.48 938.804 780.888 939.668C782.309 940.521 783.41 941.716 784.191 943.255C784.984 944.782 785.375 946.569 785.363 948.617V966H776.68V950.322C776.692 948.807 776.308 947.623 775.526 946.771C774.757 945.918 773.686 945.492 772.312 945.492C771.401 945.492 770.596 945.693 769.898 946.096C769.211 946.487 768.679 947.049 768.3 947.783C767.933 948.517 767.743 949.404 767.732 950.446ZM801.481 966V938.727H810.163V966H801.481ZM805.831 935.549C804.612 935.549 803.564 935.147 802.688 934.342C801.812 933.525 801.374 932.542 801.374 931.394C801.374 930.258 801.812 929.287 802.688 928.482C803.564 927.665 804.612 927.257 805.831 927.257C807.062 927.257 808.109 927.665 808.974 928.482C809.849 929.287 810.287 930.258 810.287 931.394C810.287 932.542 809.849 933.525 808.974 934.342C808.109 935.147 807.062 935.549 805.831 935.549ZM824.372 950.446V966H815.69V938.727H823.946V943.734H824.248C824.852 942.065 825.881 940.757 827.337 939.81C828.793 938.852 830.527 938.372 832.54 938.372C834.457 938.372 836.121 938.804 837.529 939.668C838.95 940.521 840.05 941.716 840.832 943.255C841.625 944.782 842.015 946.569 842.004 948.617V966H833.321V950.322C833.333 948.807 832.948 947.623 832.167 946.771C831.397 945.918 830.326 945.492 828.953 945.492C828.042 945.492 827.237 945.693 826.538 946.096C825.852 946.487 825.319 947.049 824.94 947.783C824.573 948.517 824.384 949.404 824.372 950.446Z" fill="white"/>
<path d="M818.478 1065.14C818.386 1064.12 817.975 1063.33 817.245 1062.77C816.525 1062.2 815.496 1061.91 814.157 1061.91C813.271 1061.91 812.532 1062.03 811.941 1062.26C811.35 1062.49 810.907 1062.81 810.612 1063.21C810.316 1063.61 810.164 1064.07 810.154 1064.59C810.136 1065.01 810.219 1065.38 810.404 1065.71C810.598 1066.03 810.875 1066.32 811.235 1066.57C811.604 1066.81 812.047 1067.02 812.564 1067.2C813.081 1067.39 813.663 1067.55 814.309 1067.69L816.747 1068.24C818.15 1068.55 819.387 1068.95 820.458 1069.46C821.539 1069.97 822.444 1070.57 823.173 1071.28C823.912 1071.98 824.47 1072.78 824.849 1073.7C825.227 1074.61 825.421 1075.64 825.43 1076.77C825.421 1078.56 824.969 1080.1 824.073 1081.39C823.178 1082.67 821.89 1083.65 820.209 1084.34C818.538 1085.02 816.521 1085.36 814.157 1085.36C811.784 1085.36 809.716 1085 807.952 1084.29C806.189 1083.58 804.818 1082.5 803.839 1081.05C802.86 1079.6 802.357 1077.77 802.33 1075.55H808.894C808.95 1076.47 809.194 1077.23 809.628 1077.84C810.062 1078.45 810.658 1078.91 811.415 1079.22C812.181 1079.54 813.067 1079.7 814.074 1079.7C814.997 1079.7 815.782 1079.57 816.428 1079.32C817.084 1079.07 817.587 1078.73 817.938 1078.28C818.289 1077.84 818.469 1077.33 818.478 1076.76C818.469 1076.22 818.303 1075.77 817.979 1075.39C817.656 1075 817.158 1074.67 816.484 1074.39C815.819 1074.11 814.969 1073.84 813.935 1073.6L810.972 1072.91C808.516 1072.35 806.581 1071.44 805.169 1070.18C803.756 1068.92 803.054 1067.21 803.064 1065.06C803.054 1063.3 803.525 1061.77 804.476 1060.44C805.427 1059.12 806.743 1058.1 808.423 1057.36C810.104 1056.62 812.02 1056.25 814.171 1056.25C816.368 1056.25 818.275 1056.62 819.891 1057.37C821.516 1058.11 822.776 1059.15 823.672 1060.49C824.567 1061.83 825.024 1063.38 825.043 1065.14H818.478ZM828.893 1085V1063.73H835.665V1085H828.893ZM832.286 1061.25C831.335 1061.25 830.518 1060.93 829.835 1060.31C829.151 1059.67 828.81 1058.9 828.81 1058.01C828.81 1057.12 829.151 1056.36 829.835 1055.74C830.518 1055.1 831.335 1054.78 832.286 1054.78C833.246 1054.78 834.063 1055.1 834.737 1055.74C835.42 1056.36 835.762 1057.12 835.762 1058.01C835.762 1058.9 835.42 1059.67 834.737 1060.31C834.063 1060.93 833.246 1061.25 832.286 1061.25ZM849.892 1093.42C847.87 1093.42 846.139 1093.14 844.698 1092.58C843.258 1092.01 842.127 1091.24 841.305 1090.26C840.484 1089.28 839.99 1088.18 839.823 1086.94L846.236 1086.58C846.356 1087.01 846.577 1087.39 846.9 1087.71C847.233 1088.04 847.662 1088.29 848.188 1088.46C848.724 1088.64 849.352 1088.73 850.072 1088.73C851.208 1088.73 852.145 1088.45 852.883 1087.89C853.631 1087.35 854.005 1086.39 854.005 1085.03V1081.29H853.77C853.502 1081.94 853.096 1082.53 852.551 1083.05C852.006 1083.56 851.328 1083.97 850.515 1084.27C849.712 1084.56 848.789 1084.71 847.745 1084.71C846.194 1084.71 844.772 1084.35 843.48 1083.63C842.196 1082.9 841.167 1081.77 840.391 1080.25C839.625 1078.72 839.242 1076.75 839.242 1074.34C839.242 1071.85 839.639 1069.81 840.433 1068.2C841.227 1066.58 842.266 1065.39 843.549 1064.61C844.842 1063.84 846.231 1063.45 847.718 1063.45C848.835 1063.45 849.79 1063.64 850.584 1064.03C851.388 1064.41 852.048 1064.9 852.565 1065.5C853.082 1066.1 853.474 1066.72 853.742 1067.37H853.936V1063.73H860.681V1085.08C860.681 1086.88 860.228 1088.4 859.323 1089.64C858.419 1090.88 857.154 1091.81 855.529 1092.45C853.904 1093.1 852.025 1093.42 849.892 1093.42ZM850.1 1079.78C850.921 1079.78 851.623 1079.56 852.205 1079.13C852.786 1078.69 853.234 1078.07 853.548 1077.26C853.862 1076.45 854.019 1075.47 854.019 1074.34C854.019 1073.18 853.862 1072.19 853.548 1071.36C853.244 1070.52 852.796 1069.87 852.205 1069.42C851.623 1068.97 850.921 1068.74 850.1 1068.74C849.259 1068.74 848.549 1068.97 847.967 1069.43C847.385 1069.89 846.942 1070.55 846.637 1071.39C846.342 1072.22 846.194 1073.2 846.194 1074.34C846.194 1075.47 846.347 1076.45 846.651 1077.26C846.956 1078.07 847.394 1078.69 847.967 1079.13C848.549 1079.56 849.259 1079.78 850.1 1079.78ZM871.771 1072.87V1085H864.998V1063.73H871.438V1067.63H871.674C872.145 1066.33 872.948 1065.31 874.083 1064.57C875.219 1063.82 876.572 1063.45 878.141 1063.45C879.637 1063.45 880.934 1063.79 882.033 1064.46C883.141 1065.13 884 1066.06 884.609 1067.26C885.228 1068.45 885.532 1069.84 885.523 1071.44V1085H878.751V1072.77C878.76 1071.59 878.46 1070.67 877.85 1070C877.25 1069.34 876.415 1069 875.344 1069C874.633 1069 874.005 1069.16 873.46 1069.47C872.925 1069.78 872.509 1070.22 872.214 1070.79C871.928 1071.36 871.78 1072.06 871.771 1072.87ZM911.82 1075.82V1063.73H918.578V1085H912.124V1081.04H911.903C911.432 1082.34 910.629 1083.37 909.493 1084.14C908.367 1084.9 907.005 1085.28 905.407 1085.28C903.958 1085.28 902.684 1084.94 901.585 1084.28C900.486 1083.62 899.632 1082.69 899.023 1081.5C898.413 1080.3 898.104 1078.89 898.095 1077.29V1063.73H904.867V1075.96C904.877 1077.11 905.181 1078.02 905.781 1078.68C906.381 1079.35 907.199 1079.68 908.233 1079.68C908.907 1079.68 909.511 1079.53 910.047 1079.24C910.592 1078.93 911.021 1078.5 911.335 1077.92C911.658 1077.34 911.82 1076.64 911.82 1075.82ZM922.889 1092.98V1063.73H929.592V1067.37H929.8C930.077 1066.72 930.469 1066.1 930.977 1065.5C931.494 1064.9 932.15 1064.41 932.944 1064.03C933.747 1063.64 934.707 1063.45 935.824 1063.45C937.301 1063.45 938.682 1063.84 939.965 1064.61C941.258 1065.39 942.301 1066.58 943.095 1068.2C943.889 1069.82 944.286 1071.88 944.286 1074.38C944.286 1076.79 943.903 1078.8 943.137 1080.43C942.38 1082.05 941.355 1083.27 940.062 1084.09C938.779 1084.9 937.352 1085.3 935.783 1085.3C934.712 1085.3 933.784 1085.13 932.999 1084.78C932.214 1084.43 931.554 1083.97 931.018 1083.39C930.492 1082.82 930.086 1082.21 929.8 1081.55H929.661V1092.98H922.889ZM929.523 1074.36C929.523 1075.51 929.675 1076.51 929.98 1077.36C930.294 1078.2 930.741 1078.86 931.323 1079.34C931.914 1079.8 932.62 1080.03 933.442 1080.03C934.273 1080.03 934.979 1079.8 935.561 1079.34C936.143 1078.86 936.581 1078.2 936.877 1077.36C937.181 1076.51 937.334 1075.51 937.334 1074.36C937.334 1073.22 937.181 1072.23 936.877 1071.39C936.581 1070.55 936.143 1069.89 935.561 1069.43C934.989 1068.97 934.282 1068.74 933.442 1068.74C932.611 1068.74 931.905 1068.97 931.323 1069.42C930.741 1069.87 930.294 1070.52 929.98 1071.36C929.675 1072.2 929.523 1073.2 929.523 1074.36Z" fill="#0D0169"/>
<path d="M557.286 1056.64V1085H551.469L540.182 1068.63H540.002V1085H533.147V1056.64H539.047L550.209 1072.98H550.445V1056.64H557.286ZM571.527 1085.4C569.293 1085.4 567.372 1084.94 565.766 1084.03C564.168 1083.11 562.936 1081.82 562.068 1080.18C561.209 1078.53 560.78 1076.61 560.78 1074.43C560.78 1072.24 561.209 1070.33 562.068 1068.69C562.936 1067.03 564.168 1065.75 565.766 1064.84C567.372 1063.91 569.293 1063.45 571.527 1063.45C573.761 1063.45 575.677 1063.91 577.274 1064.84C578.881 1065.75 580.114 1067.03 580.972 1068.69C581.84 1070.33 582.274 1072.24 582.274 1074.43C582.274 1076.61 581.84 1078.53 580.972 1080.18C580.114 1081.82 578.881 1083.11 577.274 1084.03C575.677 1084.94 573.761 1085.4 571.527 1085.4ZM571.568 1080.29C572.381 1080.29 573.069 1080.04 573.632 1079.54C574.195 1079.04 574.625 1078.35 574.92 1077.47C575.225 1076.58 575.377 1075.55 575.377 1074.39C575.377 1073.21 575.225 1072.18 574.92 1071.29C574.625 1070.4 574.195 1069.71 573.632 1069.21C573.069 1068.71 572.381 1068.46 571.568 1068.46C570.728 1068.46 570.017 1068.71 569.436 1069.21C568.863 1069.71 568.425 1070.4 568.12 1071.29C567.824 1072.18 567.677 1073.21 567.677 1074.39C567.677 1075.55 567.824 1076.58 568.12 1077.47C568.425 1078.35 568.863 1079.04 569.436 1079.54C570.017 1080.04 570.728 1080.29 571.568 1080.29ZM600.258 1085H592.89L602.46 1056.64H611.586L621.156 1085H613.788L607.127 1063.78H606.905L600.258 1085ZM599.274 1073.84H614.675V1079.04H599.274V1073.84ZM632.807 1085.4C630.564 1085.4 628.638 1084.94 627.032 1084.02C625.435 1083.09 624.207 1081.81 623.348 1080.17C622.489 1078.51 622.06 1076.6 622.06 1074.43C622.06 1072.25 622.489 1070.34 623.348 1068.7C624.216 1067.05 625.449 1065.76 627.046 1064.84C628.652 1063.91 630.568 1063.45 632.793 1063.45C634.76 1063.45 636.473 1063.81 637.931 1064.52C639.4 1065.23 640.544 1066.23 641.366 1067.54C642.197 1068.83 642.636 1070.35 642.682 1072.09H636.353C636.223 1071 635.854 1070.15 635.245 1069.53C634.645 1068.91 633.86 1068.6 632.89 1068.6C632.105 1068.6 631.418 1068.82 630.827 1069.27C630.236 1069.7 629.774 1070.35 629.442 1071.21C629.119 1072.06 628.957 1073.11 628.957 1074.36C628.957 1075.62 629.119 1076.68 629.442 1077.55C629.774 1078.41 630.236 1079.06 630.827 1079.5C631.418 1079.94 632.105 1080.15 632.89 1080.15C633.518 1080.15 634.072 1080.02 634.552 1079.75C635.042 1079.48 635.443 1079.09 635.757 1078.57C636.071 1078.05 636.27 1077.41 636.353 1076.66H642.682C642.617 1078.42 642.179 1079.95 641.366 1081.26C640.563 1082.57 639.432 1083.59 637.973 1084.32C636.523 1085.04 634.801 1085.4 632.807 1085.4ZM656.078 1085.4C653.834 1085.4 651.909 1084.94 650.302 1084.02C648.705 1083.09 647.477 1081.81 646.619 1080.17C645.76 1078.51 645.331 1076.6 645.331 1074.43C645.331 1072.25 645.76 1070.34 646.619 1068.7C647.486 1067.05 648.719 1065.76 650.316 1064.84C651.923 1063.91 653.839 1063.45 656.064 1063.45C658.03 1063.45 659.743 1063.81 661.202 1064.52C662.67 1065.23 663.815 1066.23 664.637 1067.54C665.468 1068.83 665.906 1070.35 665.952 1072.09H659.623C659.494 1071 659.125 1070.15 658.515 1069.53C657.915 1068.91 657.13 1068.6 656.161 1068.6C655.376 1068.6 654.688 1068.82 654.097 1069.27C653.506 1069.7 653.045 1070.35 652.712 1071.21C652.389 1072.06 652.228 1073.11 652.228 1074.36C652.228 1075.62 652.389 1076.68 652.712 1077.55C653.045 1078.41 653.506 1079.06 654.097 1079.5C654.688 1079.94 655.376 1080.15 656.161 1080.15C656.789 1080.15 657.343 1080.02 657.823 1079.75C658.312 1079.48 658.714 1079.09 659.028 1078.57C659.342 1078.05 659.54 1077.41 659.623 1076.66H665.952C665.888 1078.42 665.449 1079.95 664.637 1081.26C663.833 1082.57 662.702 1083.59 661.244 1084.32C659.794 1085.04 658.072 1085.4 656.078 1085.4ZM679.348 1085.4C677.114 1085.4 675.193 1084.94 673.587 1084.03C671.99 1083.11 670.757 1081.82 669.889 1080.18C669.03 1078.53 668.601 1076.61 668.601 1074.43C668.601 1072.24 669.03 1070.33 669.889 1068.69C670.757 1067.03 671.99 1065.75 673.587 1064.84C675.193 1063.91 677.114 1063.45 679.348 1063.45C681.583 1063.45 683.498 1063.91 685.096 1064.84C686.702 1065.75 687.935 1067.03 688.794 1068.69C689.661 1070.33 690.095 1072.24 690.095 1074.43C690.095 1076.61 689.661 1078.53 688.794 1080.18C687.935 1081.82 686.702 1083.11 685.096 1084.03C683.498 1084.94 681.583 1085.4 679.348 1085.4ZM679.39 1080.29C680.202 1080.29 680.89 1080.04 681.453 1079.54C682.017 1079.04 682.446 1078.35 682.741 1077.47C683.046 1076.58 683.198 1075.55 683.198 1074.39C683.198 1073.21 683.046 1072.18 682.741 1071.29C682.446 1070.4 682.017 1069.71 681.453 1069.21C680.89 1068.71 680.202 1068.46 679.39 1068.46C678.55 1068.46 677.839 1068.71 677.257 1069.21C676.684 1069.71 676.246 1070.4 675.941 1071.29C675.646 1072.18 675.498 1073.21 675.498 1074.39C675.498 1075.55 675.646 1076.58 675.941 1077.47C676.246 1078.35 676.684 1079.04 677.257 1079.54C677.839 1080.04 678.55 1080.29 679.39 1080.29ZM707.289 1075.82V1063.73H714.048V1085H707.594V1081.04H707.373C706.902 1082.34 706.098 1083.37 704.963 1084.14C703.836 1084.9 702.474 1085.28 700.877 1085.28C699.428 1085.28 698.153 1084.94 697.055 1084.28C695.956 1083.62 695.102 1082.69 694.493 1081.5C693.883 1080.3 693.574 1078.89 693.565 1077.29V1063.73H700.337V1075.96C700.346 1077.11 700.651 1078.02 701.251 1078.68C701.851 1079.35 702.668 1079.68 703.702 1079.68C704.376 1079.68 704.981 1079.53 705.517 1079.24C706.061 1078.93 706.491 1078.5 706.805 1077.92C707.128 1077.34 707.289 1076.64 707.289 1075.82ZM725.131 1072.87V1085H718.359V1063.73H724.799V1067.63H725.034C725.505 1066.33 726.308 1065.31 727.444 1064.57C728.579 1063.82 729.932 1063.45 731.502 1063.45C732.997 1063.45 734.295 1063.79 735.393 1064.46C736.501 1065.13 737.36 1066.06 737.969 1067.26C738.588 1068.45 738.893 1069.84 738.883 1071.44V1085H732.111V1072.77C732.12 1071.59 731.82 1070.67 731.211 1070C730.611 1069.34 729.775 1069 728.704 1069C727.993 1069 727.365 1069.16 726.821 1069.47C726.285 1069.78 725.87 1070.22 725.574 1070.79C725.288 1071.36 725.14 1072.06 725.131 1072.87ZM755.084 1063.73V1068.71H741.664V1063.73H755.084ZM744.475 1058.63H751.248V1078.31C751.248 1078.73 751.312 1079.06 751.441 1079.32C751.58 1079.57 751.778 1079.75 752.037 1079.86C752.295 1079.96 752.605 1080.01 752.965 1080.01C753.223 1080.01 753.496 1079.99 753.782 1079.94C754.077 1079.89 754.299 1079.84 754.447 1079.81L755.472 1084.7C755.148 1084.79 754.691 1084.9 754.1 1085.04C753.519 1085.18 752.822 1085.27 752.009 1085.3C750.421 1085.38 749.059 1085.19 747.924 1084.75C746.797 1084.3 745.934 1083.6 745.334 1082.65C744.743 1081.69 744.457 1080.5 744.475 1079.06V1058.63ZM763.871 1076.32V1075.75C763.871 1074.18 764.001 1072.93 764.259 1072C764.527 1071.06 764.915 1070.31 765.422 1069.75C765.93 1069.18 766.549 1068.66 767.278 1068.19C767.86 1067.82 768.377 1067.44 768.829 1067.06C769.291 1066.68 769.656 1066.26 769.923 1065.82C770.191 1065.38 770.325 1064.87 770.325 1064.31C770.325 1063.76 770.196 1063.28 769.937 1062.87C769.679 1062.45 769.323 1062.13 768.871 1061.91C768.428 1061.68 767.934 1061.57 767.389 1061.57C766.844 1061.57 766.332 1061.69 765.852 1061.94C765.381 1062.19 764.993 1062.55 764.688 1063.01C764.393 1063.46 764.241 1064.01 764.231 1064.66H757.861C757.888 1062.72 758.336 1061.13 759.204 1059.89C760.081 1058.65 761.24 1057.74 762.68 1057.15C764.121 1056.55 765.709 1056.25 767.444 1056.25C769.346 1056.25 771.036 1056.54 772.513 1057.13C774 1057.73 775.168 1058.6 776.017 1059.75C776.867 1060.91 777.291 1062.32 777.291 1063.99C777.291 1065.09 777.107 1066.06 776.737 1066.9C776.368 1067.74 775.851 1068.48 775.186 1069.13C774.531 1069.77 773.76 1070.35 772.873 1070.87C772.181 1071.28 771.604 1071.7 771.142 1072.15C770.69 1072.59 770.348 1073.1 770.117 1073.67C769.887 1074.23 769.771 1074.93 769.771 1075.75V1076.32H763.871ZM766.932 1085.4C765.935 1085.4 765.081 1085.05 764.37 1084.35C763.668 1083.65 763.322 1082.8 763.331 1081.8C763.322 1080.82 763.668 1079.99 764.37 1079.29C765.081 1078.59 765.935 1078.24 766.932 1078.24C767.883 1078.24 768.719 1078.59 769.439 1079.29C770.159 1079.99 770.524 1080.82 770.533 1081.8C770.524 1082.47 770.348 1083.07 770.007 1083.62C769.674 1084.16 769.236 1084.59 768.691 1084.92C768.155 1085.24 767.569 1085.4 766.932 1085.4Z" fill="black"/>
<rect x="137" y="1173" width="1237" height="4" fill="#969696"/>
<rect x="706" y="1125" width="100" height="119" fill="#EBEBEB"/>
<path d="M756.185 1174.91C755.654 1178.04 754.613 1180.69 753.06 1182.85C751.516 1185 749.636 1186.63 747.42 1187.74C745.214 1188.84 742.842 1189.4 740.304 1189.4C737.624 1189.4 735.304 1188.8 733.344 1187.61C731.384 1186.41 729.958 1184.68 729.068 1182.39C728.188 1180.11 728.017 1177.34 728.557 1174.09C729.068 1170.95 730.096 1168.3 731.639 1166.13C733.192 1163.96 735.081 1162.32 737.307 1161.2C739.542 1160.07 741.938 1159.51 744.494 1159.51C747.155 1159.51 749.461 1160.11 751.412 1161.32C753.372 1162.52 754.793 1164.27 755.673 1166.56C756.554 1168.85 756.724 1171.63 756.185 1174.91ZM749.153 1174.09C749.447 1172.26 749.447 1170.72 749.153 1169.47C748.869 1168.22 748.311 1167.28 747.477 1166.64C746.644 1166 745.56 1165.68 744.224 1165.68C742.747 1165.68 741.412 1166.04 740.219 1166.77C739.035 1167.49 738.045 1168.54 737.25 1169.92C736.455 1171.3 735.901 1172.96 735.588 1174.91C735.266 1176.76 735.257 1178.29 735.56 1179.53C735.872 1180.76 736.455 1181.68 737.307 1182.31C738.159 1182.93 739.243 1183.23 740.56 1183.23C742.027 1183.23 743.348 1182.88 744.523 1182.17C745.697 1181.46 746.677 1180.42 747.463 1179.06C748.259 1177.69 748.822 1176.04 749.153 1174.09ZM757.946 1189L762.776 1159.91H774.793C776.971 1159.91 778.789 1160.3 780.247 1161.09C781.705 1161.86 782.742 1162.98 783.358 1164.44C783.973 1165.89 784.116 1167.61 783.784 1169.6C783.462 1171.6 782.742 1173.31 781.625 1174.72C780.517 1176.13 779.087 1177.2 777.335 1177.93C775.593 1178.67 773.614 1179.04 771.398 1179.04H763.798L764.736 1173.5H771.028C772.08 1173.5 772.989 1173.37 773.756 1173.09C774.523 1172.81 775.134 1172.38 775.588 1171.81C776.052 1171.23 776.36 1170.5 776.511 1169.6C776.653 1168.7 776.587 1167.95 776.312 1167.37C776.047 1166.77 775.579 1166.32 774.906 1166.03C774.243 1165.73 773.391 1165.58 772.349 1165.58H768.884L764.977 1189H757.946ZM776.526 1175.7L781.568 1189H773.898L769.011 1175.7H776.526Z" fill="black"/>
<g filter="url(#filter2_d_1_102)">
<rect x="390" y="1284" width="330" height="112" rx="50" fill="#0D0169"/>
</g>
<path d="M496.324 1335.22H493.201V1335.08H458.297V1347.92H480.214C477.017 1355.39 468.425 1360.75 458.297 1360.75C445.446 1360.75 435.027 1352.13 435.027 1341.5C435.027 1330.87 445.446 1322.25 458.297 1322.25C464.228 1322.25 469.625 1324.1 473.734 1327.13L484.703 1318.05C477.777 1312.71 468.512 1309.42 458.297 1309.42C436.879 1309.42 419.515 1323.78 419.515 1341.5C419.515 1359.22 436.879 1373.58 458.297 1373.58C479.714 1373.58 497.079 1359.22 497.079 1341.5C497.079 1339.35 496.811 1337.25 496.324 1335.22Z" fill="#FFC107"/>
<path d="M423.986 1326.57L436.728 1334.3C440.176 1327.24 448.526 1322.25 458.297 1322.25C464.229 1322.25 469.625 1324.1 473.734 1327.13L484.704 1318.05C477.777 1312.71 468.512 1309.42 458.297 1309.42C443.401 1309.42 430.482 1316.37 423.986 1326.57Z" fill="#FF3D00"/>
<path d="M458.297 1373.58C468.314 1373.58 477.416 1370.41 484.298 1365.25L472.295 1356.85C468.271 1359.38 463.353 1360.75 458.297 1360.75C448.21 1360.75 439.644 1355.43 436.418 1348L423.771 1356.06C430.189 1366.45 443.224 1373.58 458.297 1373.58Z" fill="#4CAF50"/>
<path d="M496.325 1335.22H493.201V1335.08H458.297V1347.92H480.215C478.685 1351.47 475.93 1354.58 472.289 1356.85L472.295 1356.85L484.298 1365.25C483.449 1365.89 497.079 1357.54 497.079 1341.5C497.079 1339.35 496.811 1337.25 496.325 1335.22Z" fill="#1976D2"/>
<path d="M519.886 1338.86C519.837 1338.34 519.721 1337.88 519.538 1337.48C519.356 1337.07 519.107 1336.73 518.793 1336.45C518.478 1336.17 518.088 1335.96 517.624 1335.82C517.16 1335.67 516.622 1335.59 516.009 1335.59C514.782 1335.59 513.647 1335.89 512.603 1336.49C511.559 1337.08 510.676 1337.95 509.956 1339.1C509.235 1340.23 508.742 1341.61 508.477 1343.24C508.211 1344.87 508.203 1346.26 508.452 1347.41C508.709 1348.56 509.222 1349.44 509.993 1350.05C510.763 1350.65 511.783 1350.95 513.05 1350.95C514.186 1350.95 515.188 1350.77 516.058 1350.41C516.928 1350.03 517.633 1349.51 518.171 1348.83C518.718 1348.15 519.062 1347.35 519.203 1346.43L520.334 1346.57H514.144L514.89 1342.08H525.852L525.293 1345.45C524.92 1347.73 524.116 1349.68 522.882 1351.3C521.655 1352.93 520.123 1354.17 518.283 1355.04C516.452 1355.91 514.442 1356.35 512.255 1356.35C509.835 1356.35 507.793 1355.82 506.127 1354.77C504.462 1353.72 503.277 1352.22 502.573 1350.27C501.868 1348.31 501.736 1345.99 502.175 1343.31C502.523 1341.22 503.14 1339.37 504.027 1337.75C504.922 1336.13 506.016 1334.75 507.308 1333.63C508.609 1332.5 510.047 1331.65 511.621 1331.07C513.195 1330.49 514.832 1330.2 516.531 1330.2C517.997 1330.2 519.331 1330.41 520.533 1330.83C521.734 1331.25 522.762 1331.85 523.615 1332.62C524.469 1333.39 525.111 1334.31 525.542 1335.37C525.981 1336.43 526.171 1337.59 526.113 1338.86H519.886ZM553.243 1343.67C552.779 1346.41 551.867 1348.73 550.508 1350.62C549.158 1352.5 547.513 1353.92 545.574 1354.89C543.643 1355.86 541.568 1356.35 539.347 1356.35C537.002 1356.35 534.972 1355.83 533.257 1354.78C531.542 1353.74 530.295 1352.22 529.516 1350.22C528.745 1348.22 528.596 1345.8 529.068 1342.95C529.516 1340.21 530.415 1337.89 531.765 1335.99C533.124 1334.09 534.777 1332.65 536.725 1331.68C538.68 1330.69 540.776 1330.2 543.014 1330.2C545.342 1330.2 547.36 1330.72 549.066 1331.78C550.782 1332.83 552.025 1334.36 552.795 1336.36C553.566 1338.37 553.715 1340.8 553.243 1343.67ZM547.09 1342.95C547.347 1341.35 547.347 1340 547.09 1338.91C546.842 1337.82 546.353 1336.99 545.624 1336.44C544.895 1335.87 543.946 1335.59 542.777 1335.59C541.485 1335.59 540.316 1335.91 539.272 1336.55C538.237 1337.18 537.371 1338.1 536.675 1339.31C535.979 1340.51 535.494 1341.96 535.221 1343.67C534.939 1345.29 534.931 1346.63 535.196 1347.71C535.469 1348.79 535.979 1349.6 536.725 1350.15C537.47 1350.68 538.419 1350.95 539.571 1350.95C540.855 1350.95 542.011 1350.64 543.038 1350.02C544.066 1349.4 544.924 1348.49 545.611 1347.3C546.307 1346.11 546.8 1344.66 547.09 1342.95ZM580.86 1343.67C580.396 1346.41 579.484 1348.73 578.125 1350.62C576.775 1352.5 575.13 1353.92 573.191 1354.89C571.261 1355.86 569.185 1356.35 566.964 1356.35C564.619 1356.35 562.589 1355.83 560.874 1354.78C559.159 1353.74 557.912 1352.22 557.133 1350.22C556.362 1348.22 556.213 1345.8 556.685 1342.95C557.133 1340.21 558.032 1337.89 559.383 1335.99C560.741 1334.09 562.395 1332.65 564.342 1331.68C566.297 1330.69 568.394 1330.2 570.631 1330.2C572.959 1330.2 574.977 1330.72 576.684 1331.78C578.399 1332.83 579.642 1334.36 580.412 1336.36C581.183 1338.37 581.332 1340.8 580.86 1343.67ZM574.707 1342.95C574.964 1341.35 574.964 1340 574.707 1338.91C574.459 1337.82 573.97 1336.99 573.241 1336.44C572.512 1335.87 571.563 1335.59 570.395 1335.59C569.102 1335.59 567.934 1335.91 566.89 1336.55C565.854 1337.18 564.988 1338.1 564.292 1339.31C563.596 1340.51 563.111 1341.96 562.838 1343.67C562.556 1345.29 562.548 1346.63 562.813 1347.71C563.086 1348.79 563.596 1349.6 564.342 1350.15C565.087 1350.68 566.036 1350.95 567.188 1350.95C568.472 1350.95 569.628 1350.64 570.656 1350.02C571.683 1349.4 572.541 1348.49 573.228 1347.3C573.924 1346.11 574.417 1344.66 574.707 1342.95ZM601.952 1338.86C601.902 1338.34 601.786 1337.88 601.604 1337.48C601.421 1337.07 601.173 1336.73 600.858 1336.45C600.543 1336.17 600.154 1335.96 599.69 1335.82C599.226 1335.67 598.687 1335.59 598.074 1335.59C596.848 1335.59 595.712 1335.89 594.668 1336.49C593.624 1337.08 592.742 1337.95 592.021 1339.1C591.3 1340.23 590.807 1341.61 590.542 1343.24C590.277 1344.87 590.269 1346.26 590.517 1347.41C590.774 1348.56 591.288 1349.44 592.058 1350.05C592.829 1350.65 593.848 1350.95 595.116 1350.95C596.251 1350.95 597.254 1350.77 598.124 1350.41C598.994 1350.03 599.698 1349.51 600.237 1348.83C600.783 1348.15 601.127 1347.35 601.268 1346.43L602.399 1346.57H596.21L596.955 1342.08H607.918L607.358 1345.45C606.986 1347.73 606.182 1349.68 604.947 1351.3C603.721 1352.93 602.188 1354.17 600.348 1355.04C598.517 1355.91 596.508 1356.35 594.32 1356.35C591.901 1356.35 589.858 1355.82 588.193 1354.77C586.527 1353.72 585.343 1352.22 584.638 1350.27C583.934 1348.31 583.801 1345.99 584.241 1343.31C584.589 1341.22 585.206 1339.37 586.092 1337.75C586.987 1336.13 588.081 1334.75 589.374 1333.63C590.675 1332.5 592.112 1331.65 593.687 1331.07C595.261 1330.49 596.897 1330.2 598.596 1330.2C600.063 1330.2 601.397 1330.41 602.598 1330.83C603.8 1331.25 604.827 1331.85 605.68 1332.62C606.534 1333.39 607.176 1334.31 607.607 1335.37C608.046 1336.43 608.237 1337.59 608.179 1338.86H601.952ZM609.232 1356L613.458 1330.55H619.61L616.23 1351H626.819L625.974 1356H609.232ZM629.159 1356L633.385 1330.55H651.133L650.288 1335.54H638.692L637.847 1340.76H648.536L647.69 1345.77H637.002L636.156 1351H647.753L646.907 1356H629.159Z" fill="white"/>
<g filter="url(#filter3_d_1_102)">
<rect x="781" y="1284" width="340" height="112" rx="50" fill="#0D0169"/>
</g>
<g clip-path="url(#clip0_1_102)">
<path d="M883 1342C883 1318.8 864.196 1300 841 1300C817.804 1300 799 1318.8 799 1342C799 1362.96 814.359 1380.34 834.438 1383.49V1354.14H823.773V1342H834.438V1332.75C834.438 1322.22 840.708 1316.41 850.302 1316.41C854.897 1316.41 859.703 1317.23 859.703 1317.23V1327.56H854.407C849.19 1327.56 847.562 1330.8 847.562 1334.12V1342H859.211L857.349 1354.14H847.562V1383.49C867.641 1380.34 883 1362.96 883 1342Z" fill="#1877F2"/>
<path d="M857.349 1354.14L859.211 1342H847.562V1334.12C847.562 1330.8 849.19 1327.56 854.407 1327.56H859.703V1317.23C859.703 1317.23 854.897 1316.41 850.301 1316.41C840.708 1316.41 834.438 1322.22 834.438 1332.75V1342H823.773V1354.14H834.438V1383.49C836.608 1383.83 838.803 1384 841 1384C843.197 1384 845.392 1383.83 847.562 1383.49V1354.14H857.349Z" fill="white"/>
</g>
<path d="M907.336 1356L911.561 1330.55H928.937L928.092 1335.54H916.869L916.023 1340.76H926.141L925.295 1345.77H915.178L913.488 1356H907.336ZM932.834 1356.32C931.624 1356.32 930.58 1356.12 929.702 1355.71C928.831 1355.3 928.193 1354.67 927.787 1353.84C927.39 1353 927.294 1351.96 927.502 1350.71C927.684 1349.64 928.019 1348.75 928.508 1348.03C929.006 1347.3 929.615 1346.71 930.335 1346.26C931.065 1345.8 931.877 1345.45 932.771 1345.21C933.666 1344.97 934.603 1344.81 935.58 1344.73C936.674 1344.63 937.561 1344.52 938.24 1344.4C938.928 1344.29 939.442 1344.13 939.781 1343.92C940.121 1343.7 940.328 1343.41 940.403 1343.02V1342.96C940.502 1342.32 940.366 1341.83 939.993 1341.48C939.62 1341.13 939.061 1340.96 938.315 1340.96C937.519 1340.96 936.84 1341.13 936.276 1341.48C935.713 1341.83 935.319 1342.31 935.096 1342.92L929.528 1342.73C929.876 1341.57 930.472 1340.53 931.317 1339.62C932.162 1338.7 933.235 1337.98 934.536 1337.46C935.846 1336.93 937.358 1336.66 939.073 1336.66C940.283 1336.66 941.376 1336.81 942.354 1337.1C943.332 1337.38 944.156 1337.79 944.828 1338.34C945.507 1338.88 945.992 1339.54 946.282 1340.33C946.572 1341.11 946.634 1342.01 946.468 1343.02L944.293 1356H938.576L939.023 1353.34H938.874C938.427 1353.99 937.901 1354.53 937.296 1354.98C936.699 1355.43 936.028 1355.76 935.282 1355.99C934.536 1356.21 933.72 1356.32 932.834 1356.32ZM935.394 1352.35C936.032 1352.35 936.637 1352.21 937.209 1351.95C937.78 1351.68 938.261 1351.32 938.65 1350.85C939.048 1350.38 939.301 1349.84 939.409 1349.21L939.694 1347.4C939.52 1347.49 939.301 1347.57 939.036 1347.65C938.771 1347.72 938.489 1347.79 938.191 1347.86C937.892 1347.92 937.586 1347.98 937.271 1348.03C936.964 1348.08 936.67 1348.13 936.388 1348.17C935.792 1348.26 935.274 1348.4 934.835 1348.59C934.396 1348.78 934.043 1349.03 933.778 1349.34C933.521 1349.64 933.364 1349.99 933.306 1350.41C933.206 1351.03 933.352 1351.51 933.741 1351.85C934.13 1352.18 934.681 1352.35 935.394 1352.35ZM956.871 1356.36C954.858 1356.36 953.196 1355.95 951.887 1355.12C950.586 1354.29 949.675 1353.14 949.153 1351.66C948.631 1350.18 948.536 1348.46 948.867 1346.52C949.182 1344.56 949.849 1342.85 950.868 1341.37C951.887 1339.89 953.188 1338.73 954.771 1337.9C956.353 1337.07 958.143 1336.66 960.14 1336.66C961.905 1336.66 963.388 1336.98 964.59 1337.62C965.799 1338.26 966.674 1339.16 967.212 1340.33C967.759 1341.49 967.921 1342.85 967.697 1344.42H962.017C962.067 1343.45 961.868 1342.68 961.42 1342.13C960.973 1341.57 960.322 1341.28 959.469 1341.28C958.748 1341.28 958.085 1341.48 957.48 1341.88C956.884 1342.27 956.374 1342.85 955.952 1343.62C955.537 1344.38 955.239 1345.33 955.057 1346.45C954.874 1347.58 954.862 1348.53 955.019 1349.31C955.185 1350.08 955.496 1350.67 955.952 1351.07C956.416 1351.46 957.004 1351.65 957.716 1351.65C958.28 1351.65 958.802 1351.53 959.282 1351.29C959.763 1351.05 960.182 1350.7 960.538 1350.23C960.894 1349.76 961.172 1349.19 961.371 1348.52H967.038C966.715 1350.1 966.089 1351.48 965.161 1352.66C964.242 1353.82 963.077 1354.74 961.669 1355.39C960.26 1356.04 958.661 1356.36 956.871 1356.36ZM977.767 1356.36C975.771 1356.36 974.113 1355.97 972.796 1355.18C971.487 1354.38 970.567 1353.25 970.037 1351.79C969.506 1350.31 969.411 1348.56 969.751 1346.53C970.082 1344.56 970.758 1342.83 971.777 1341.36C972.804 1339.88 974.097 1338.72 975.655 1337.9C977.212 1337.07 978.948 1336.66 980.862 1336.66C982.221 1336.66 983.427 1336.87 984.479 1337.29C985.531 1337.72 986.401 1338.35 987.089 1339.18C987.777 1340.01 988.245 1341.03 988.494 1342.24C988.742 1343.45 988.734 1344.84 988.469 1346.4L988.233 1347.92H971.652L972.212 1344.39H983.149C983.249 1343.75 983.195 1343.17 982.988 1342.66C982.781 1342.16 982.445 1341.76 981.981 1341.48C981.525 1341.19 980.966 1341.05 980.303 1341.05C979.632 1341.05 979.002 1341.21 978.414 1341.52C977.834 1341.83 977.341 1342.24 976.935 1342.76C976.529 1343.29 976.264 1343.87 976.139 1344.53L975.481 1348.14C975.348 1348.95 975.385 1349.64 975.592 1350.21C975.8 1350.78 976.156 1351.22 976.661 1351.53C977.167 1351.82 977.817 1351.97 978.613 1351.97C979.143 1351.97 979.64 1351.9 980.104 1351.76C980.568 1351.61 980.982 1351.39 981.347 1351.1C981.72 1350.8 982.022 1350.44 982.254 1350.02L987.798 1350.18C987.35 1351.43 986.658 1352.52 985.722 1353.45C984.786 1354.37 983.642 1355.09 982.292 1355.6C980.949 1356.11 979.441 1356.36 977.767 1356.36ZM989.982 1356L994.208 1330.55H1004.82C1006.73 1330.55 1008.28 1330.81 1009.48 1331.35C1010.68 1331.89 1011.53 1332.65 1012.02 1333.62C1012.52 1334.58 1012.66 1335.71 1012.44 1336.98C1012.27 1337.94 1011.91 1338.81 1011.37 1339.57C1010.84 1340.32 1010.18 1340.95 1009.38 1341.46C1008.59 1341.96 1007.71 1342.3 1006.75 1342.5L1006.7 1342.75C1007.73 1342.79 1008.63 1343.07 1009.42 1343.57C1010.22 1344.08 1010.8 1344.78 1011.19 1345.7C1011.57 1346.6 1011.65 1347.66 1011.45 1348.88C1011.22 1350.25 1010.67 1351.47 1009.79 1352.54C1008.92 1353.61 1007.78 1354.46 1006.35 1355.08C1004.93 1355.69 1003.28 1356 1001.4 1356H989.982ZM996.98 1351.04H1000.78C1002.1 1351.04 1003.12 1350.79 1003.84 1350.28C1004.57 1349.77 1005 1349.06 1005.13 1348.17C1005.24 1347.52 1005.18 1346.95 1004.96 1346.48C1004.74 1346 1004.36 1345.63 1003.84 1345.37C1003.32 1345.11 1002.66 1344.98 1001.86 1344.98H997.949L996.98 1351.04ZM998.633 1341.01H1002.05C1002.71 1341.01 1003.32 1340.9 1003.88 1340.68C1004.44 1340.45 1004.91 1340.13 1005.27 1339.71C1005.64 1339.28 1005.87 1338.77 1005.97 1338.18C1006.11 1337.32 1005.91 1336.65 1005.38 1336.16C1004.85 1335.67 1004.08 1335.43 1003.06 1335.43H999.552L998.633 1341.01ZM1022.12 1356.36C1020.11 1356.36 1018.45 1355.95 1017.14 1355.12C1015.84 1354.29 1014.92 1353.13 1014.39 1351.65C1013.86 1350.17 1013.76 1348.44 1014.08 1346.48C1014.41 1344.52 1015.07 1342.81 1016.08 1341.33C1017.09 1339.86 1018.39 1338.71 1019.96 1337.89C1021.54 1337.07 1023.32 1336.66 1025.32 1336.66C1027.32 1336.66 1028.98 1337.07 1030.28 1337.9C1031.59 1338.73 1032.51 1339.89 1033.04 1341.37C1033.57 1342.85 1033.68 1344.58 1033.36 1346.55C1033.04 1348.51 1032.36 1350.22 1031.35 1351.7C1030.33 1353.17 1029.03 1354.31 1027.47 1355.13C1025.9 1355.95 1024.12 1356.36 1022.12 1356.36ZM1022.81 1351.77C1023.55 1351.77 1024.22 1351.55 1024.81 1351.1C1025.4 1350.66 1025.91 1350.03 1026.31 1349.23C1026.72 1348.42 1027.01 1347.49 1027.18 1346.43C1027.36 1345.39 1027.37 1344.47 1027.23 1343.68C1027.1 1342.89 1026.82 1342.27 1026.39 1341.83C1025.96 1341.38 1025.37 1341.16 1024.63 1341.16C1023.89 1341.16 1023.22 1341.39 1022.62 1341.84C1022.02 1342.29 1021.52 1342.92 1021.12 1343.72C1020.72 1344.52 1020.43 1345.45 1020.26 1346.52C1020.09 1347.56 1020.06 1348.48 1020.2 1349.26C1020.33 1350.05 1020.62 1350.67 1021.05 1351.12C1021.49 1351.55 1022.08 1351.77 1022.81 1351.77ZM1043.79 1356.36C1041.78 1356.36 1040.12 1355.95 1038.81 1355.12C1037.51 1354.29 1036.59 1353.13 1036.06 1351.65C1035.53 1350.17 1035.43 1348.44 1035.75 1346.48C1036.07 1344.52 1036.74 1342.81 1037.75 1341.33C1038.76 1339.86 1040.06 1338.71 1041.63 1337.89C1043.21 1337.07 1044.99 1336.66 1046.99 1336.66C1048.99 1336.66 1050.65 1337.07 1051.95 1337.9C1053.26 1338.73 1054.18 1339.89 1054.71 1341.37C1055.24 1342.85 1055.35 1344.58 1055.03 1346.55C1054.71 1348.51 1054.03 1350.22 1053.02 1351.7C1052 1353.17 1050.7 1354.31 1049.14 1355.13C1047.57 1355.95 1045.79 1356.36 1043.79 1356.36ZM1044.48 1351.77C1045.22 1351.77 1045.89 1351.55 1046.48 1351.1C1047.07 1350.66 1047.58 1350.03 1047.98 1349.23C1048.39 1348.42 1048.68 1347.49 1048.85 1346.43C1049.03 1345.39 1049.04 1344.47 1048.9 1343.68C1048.77 1342.89 1048.49 1342.27 1048.06 1341.83C1047.63 1341.38 1047.04 1341.16 1046.3 1341.16C1045.56 1341.16 1044.89 1341.39 1044.29 1341.84C1043.69 1342.29 1043.19 1342.92 1042.79 1343.72C1042.39 1344.52 1042.1 1345.45 1041.93 1346.52C1041.75 1347.56 1041.73 1348.48 1041.87 1349.26C1042 1350.05 1042.29 1350.67 1042.72 1351.12C1043.16 1351.55 1043.75 1351.77 1044.48 1351.77ZM1062.87 1350.99L1064.1 1343.75H1064.93L1071.47 1336.91H1078.35L1068.76 1346.7H1067.15L1062.87 1350.99ZM1056.56 1356L1060.79 1330.55H1066.87L1062.64 1356H1056.56ZM1068.42 1356L1064.74 1348.07L1069.48 1343.76L1075.44 1356H1068.42Z" fill="white"/>
<defs>
<filter id="filter0_d_1_102" x="571.409" y="149.278" width="366.327" height="82.7159" filterUnits="userSpaceOnUse" color-interpolation-filters="sRGB">
<feFlood flood-opacity="0" result="BackgroundImageFix"/>
<feColorMatrix in="SourceAlpha" type="matrix" values="0 0 0 0 0 0 0 0 0 0 0 0 0 0 0 0 0 0 127 0" result="hardAlpha"/>
<feOffset dy="4"/>
<feGaussianBlur stdDeviation="2"/>
<feComposite in2="hardAlpha" operator="out"/>
<feColorMatrix type="matrix" values="0 0 0 0 0 0 0 0 0 0 0 0 0 0 0 0 0 0 0.25 0"/>
<feBlend mode="normal" in2="BackgroundImageFix" result="effect1_dropShadow_1_102"/>
<feBlend mode="normal" in="SourceGraphic" in2="effect1_dropShadow_1_102" result="shape"/>
</filter>
<filter id="filter1_d_1_102" x="522" y="883" width="478" height="136" filterUnits="userSpaceOnUse" color-interpolation-filters="sRGB">
<feFlood flood-opacity="0" result="BackgroundImageFix"/>
<feColorMatrix in="SourceAlpha" type="matrix" values="0 0 0 0 0 0 0 0 0 0 0 0 0 0 0 0 0 0 127 0" result="hardAlpha"/>
<feOffset dy="4"/>
<feGaussianBlur stdDeviation="5"/>
<feComposite in2="hardAlpha" operator="out"/>
<feColorMatrix type="matrix" values="0 0 0 0 0 0 0 0 0 0 0 0 0 0 0 0 0 0 0.25 0"/>
<feBlend mode="normal" in2="BackgroundImageFix" result="effect1_dropShadow_1_102"/>
<feBlend mode="normal" in="SourceGraphic" in2="effect1_dropShadow_1_102" result="shape"/>
</filter>
<filter id="filter2_d_1_102" x="370" y="1268" width="370" height="152" filterUnits="userSpaceOnUse" color-interpolation-filters="sRGB">
<feFlood flood-opacity="0" result="BackgroundImageFix"/>
<feColorMatrix in="SourceAlpha" type="matrix" values="0 0 0 0 0 0 0 0 0 0 0 0 0 0 0 0 0 0 127 0" result="hardAlpha"/>
<feOffset dy="4"/>
<feGaussianBlur stdDeviation="10"/>
<feComposite in2="hardAlpha" operator="out"/>
<feColorMatrix type="matrix" values="0 0 0 0 0 0 0 0 0 0 0 0 0 0 0 0 0 0 0.25 0"/>
<feBlend mode="normal" in2="BackgroundImageFix" result="effect1_dropShadow_1_102"/>
<feBlend mode="normal" in="SourceGraphic" in2="effect1_dropShadow_1_102" result="shape"/>
</filter>
<filter id="filter3_d_1_102" x="761" y="1268" width="380" height="152" filterUnits="userSpaceOnUse" color-interpolation-filters="sRGB">
<feFlood flood-opacity="0" result="BackgroundImageFix"/>
<feColorMatrix in="SourceAlpha" type="matrix" values="0 0 0 0 0 0 0 0 0 0 0 0 0 0 0 0 0 0 127 0" result="hardAlpha"/>
<feOffset dy="4"/>
<feGaussianBlur stdDeviation="10"/>
<feComposite in2="hardAlpha" operator="out"/>
<feColorMatrix type="matrix" values="0 0 0 0 0 0 0 0 0 0 0 0 0 0 0 0 0 0 0.25 0"/>
<feBlend mode="normal" in2="BackgroundImageFix" result="effect1_dropShadow_1_102"/>
<feBlend mode="normal" in="SourceGraphic" in2="effect1_dropShadow_1_102" result="shape"/>
</filter>
<clipPath id="clip0_1_102">
<rect width="84" height="84" fill="white" transform="translate(799 1300)"/>
</clipPath>
</defs>
</svg>
